<mxfile host="Electron" modified="2023-10-22T16:47:03.835Z" agent="Mozilla/5.0 (Macintosh; Intel Mac OS X 10_15_7) AppleWebKit/537.36 (KHTML, like Gecko) draw.io/22.0.2 Chrome/114.0.5735.289 Electron/25.8.4 Safari/537.36" etag="2qCX6U33KcH2DHHmvgPy" version="22.0.2" type="device">
  <diagram id="-H4Wy0l3Ag9G15mjyUXc" name="Kubernetes">
    <mxGraphModel dx="2937" dy="2015" grid="1" gridSize="10" guides="1" tooltips="1" connect="1" arrows="1" fold="1" page="1" pageScale="1" pageWidth="827" pageHeight="1169" math="0" shadow="0">
      <root>
        <mxCell id="0" />
        <mxCell id="SFg6QM7ZS3-27cRyY0Mg-6" value="Connections" style="" parent="0" />
        <mxCell id="SFg6QM7ZS3-27cRyY0Mg-7" value="" style="endArrow=classic;html=1;exitX=0.32;exitY=0.027;exitDx=0;exitDy=0;entryX=0.5;entryY=1;entryDx=0;entryDy=0;fillColor=#dae8fc;strokeColor=#6c8ebf;startArrow=none;startFill=0;jumpStyle=arc;strokeWidth=2;exitPerimeter=0;" parent="SFg6QM7ZS3-27cRyY0Mg-6" source="gC-9RXFtl5AX3G4jlq2e-19" target="gC-9RXFtl5AX3G4jlq2e-15" edge="1">
          <mxGeometry width="50" height="50" relative="1" as="geometry">
            <mxPoint x="390" y="160" as="sourcePoint" />
            <mxPoint x="440" y="120" as="targetPoint" />
            <Array as="points">
              <mxPoint x="1006" y="20" />
              <mxPoint x="930" y="20" />
            </Array>
          </mxGeometry>
        </mxCell>
        <mxCell id="vqt-JQx8YhfkWItklvtR-14" value="&lt;font style=&quot;font-size: 10px;&quot;&gt;2379-2380&lt;br&gt;HTTPS&lt;br&gt;TLS1.2&lt;/font&gt;" style="edgeLabel;html=1;align=center;verticalAlign=middle;resizable=0;points=[];" parent="SFg6QM7ZS3-27cRyY0Mg-7" vertex="1" connectable="0">
          <mxGeometry x="0.8852" relative="1" as="geometry">
            <mxPoint y="23" as="offset" />
          </mxGeometry>
        </mxCell>
        <mxCell id="ec_nTFersLw2R51HPFCD-21" value="" style="endArrow=classic;html=1;exitX=1;exitY=0.5;exitDx=0;exitDy=0;fillColor=#dae8fc;strokeColor=#6c8ebf;rounded=1;jumpStyle=arc;strokeWidth=2;startArrow=none;entryX=0.27;entryY=0.058;entryDx=0;entryDy=0;entryPerimeter=0;" parent="SFg6QM7ZS3-27cRyY0Mg-6" source="gC-9RXFtl5AX3G4jlq2e-19" target="gC-9RXFtl5AX3G4jlq2e-20" edge="1">
          <mxGeometry width="50" height="50" relative="1" as="geometry">
            <mxPoint x="330" y="110" as="sourcePoint" />
            <mxPoint x="1180" y="710" as="targetPoint" />
            <Array as="points">
              <mxPoint x="1180" y="120" />
            </Array>
          </mxGeometry>
        </mxCell>
        <mxCell id="ec_nTFersLw2R51HPFCD-29" value="&lt;font style=&quot;font-size: 10px;&quot;&gt;10256/HTTP&lt;br&gt;10249/HTTP&lt;/font&gt;" style="edgeLabel;html=1;align=center;verticalAlign=middle;resizable=0;points=[];" parent="ec_nTFersLw2R51HPFCD-21" vertex="1" connectable="0">
          <mxGeometry x="0.8271" relative="1" as="geometry">
            <mxPoint y="23" as="offset" />
          </mxGeometry>
        </mxCell>
        <mxCell id="SFg6QM7ZS3-27cRyY0Mg-8" value="" style="endArrow=none;startArrow=classic;html=1;exitX=1;exitY=1;exitDx=0;exitDy=0;entryX=0.7;entryY=0.035;entryDx=0;entryDy=0;fillColor=#dae8fc;strokeColor=#6c8ebf;jumpStyle=arc;strokeWidth=2;rounded=1;entryPerimeter=0;endFill=0;" parent="SFg6QM7ZS3-27cRyY0Mg-6" source="gC-9RXFtl5AX3G4jlq2e-19" target="gC-9RXFtl5AX3G4jlq2e-21" edge="1">
          <mxGeometry width="50" height="50" relative="1" as="geometry">
            <mxPoint x="400" y="310" as="sourcePoint" />
            <mxPoint x="450" y="260" as="targetPoint" />
            <Array as="points">
              <mxPoint x="1100" y="148" />
              <mxPoint x="1100" y="400" />
              <mxPoint x="1100" y="673" />
            </Array>
          </mxGeometry>
        </mxCell>
        <mxCell id="ec_nTFersLw2R51HPFCD-5" value="&lt;font style=&quot;font-size: 10px;&quot;&gt;6443&lt;br&gt;HTTPS&lt;br&gt;TLS1.2&lt;/font&gt;" style="edgeLabel;html=1;align=center;verticalAlign=middle;resizable=0;points=[];" parent="SFg6QM7ZS3-27cRyY0Mg-8" vertex="1" connectable="0">
          <mxGeometry x="-0.7966" relative="1" as="geometry">
            <mxPoint y="107" as="offset" />
          </mxGeometry>
        </mxCell>
        <mxCell id="SFg6QM7ZS3-27cRyY0Mg-10" value="" style="endArrow=classic;html=1;exitX=0;exitY=0;exitDx=0;exitDy=0;entryX=0;entryY=0;entryDx=0;entryDy=0;fillColor=#dae8fc;strokeColor=#6c8ebf;startArrow=none;startFill=0;jumpStyle=arc;strokeWidth=2;" parent="SFg6QM7ZS3-27cRyY0Mg-6" source="gC-9RXFtl5AX3G4jlq2e-16" target="gC-9RXFtl5AX3G4jlq2e-19" edge="1">
          <mxGeometry width="50" height="50" relative="1" as="geometry">
            <mxPoint x="197" y="200" as="sourcePoint" />
            <mxPoint x="247" y="150" as="targetPoint" />
            <Array as="points">
              <mxPoint x="769" y="310" />
              <mxPoint x="880" y="310" />
              <mxPoint x="880" y="92" />
            </Array>
          </mxGeometry>
        </mxCell>
        <mxCell id="vqt-JQx8YhfkWItklvtR-41" value="6443&lt;br&gt;HTTPS&lt;br&gt;TLS1.2" style="edgeLabel;html=1;align=center;verticalAlign=middle;resizable=0;points=[];" parent="SFg6QM7ZS3-27cRyY0Mg-10" vertex="1" connectable="0">
          <mxGeometry x="-0.0283" relative="1" as="geometry">
            <mxPoint x="-2" y="-190" as="offset" />
          </mxGeometry>
        </mxCell>
        <mxCell id="vqt-JQx8YhfkWItklvtR-44" style="rounded=1;orthogonalLoop=1;jettySize=auto;html=1;exitX=0;exitY=0.5;exitDx=0;exitDy=0;entryX=0.5;entryY=0;entryDx=0;entryDy=0;startArrow=none;startFill=0;fillColor=#dae8fc;strokeColor=#6c8ebf;jumpStyle=arc;strokeWidth=2;" parent="SFg6QM7ZS3-27cRyY0Mg-6" source="gC-9RXFtl5AX3G4jlq2e-19" target="gC-9RXFtl5AX3G4jlq2e-16" edge="1">
          <mxGeometry relative="1" as="geometry">
            <Array as="points">
              <mxPoint x="910" y="120" />
              <mxPoint x="910" y="330" />
              <mxPoint x="797" y="330" />
            </Array>
          </mxGeometry>
        </mxCell>
        <mxCell id="vqt-JQx8YhfkWItklvtR-45" value="10252&lt;br&gt;HTTP" style="edgeLabel;html=1;align=center;verticalAlign=middle;resizable=0;points=[];" parent="vqt-JQx8YhfkWItklvtR-44" vertex="1" connectable="0">
          <mxGeometry x="0.8341" y="1" relative="1" as="geometry">
            <mxPoint x="-1" y="-95" as="offset" />
          </mxGeometry>
        </mxCell>
        <mxCell id="SFg6QM7ZS3-27cRyY0Mg-9" value="" style="endArrow=classic;html=1;exitX=0.5;exitY=0;exitDx=0;exitDy=0;entryX=0;entryY=1;entryDx=0;entryDy=0;fillColor=#dae8fc;strokeColor=#6c8ebf;startArrow=none;startFill=0;jumpStyle=arc;strokeWidth=2;" parent="SFg6QM7ZS3-27cRyY0Mg-6" source="gC-9RXFtl5AX3G4jlq2e-17" target="gC-9RXFtl5AX3G4jlq2e-19" edge="1">
          <mxGeometry width="50" height="50" relative="1" as="geometry">
            <mxPoint x="207" y="290" as="sourcePoint" />
            <mxPoint x="257" y="240" as="targetPoint" />
            <Array as="points">
              <mxPoint x="907" y="340" />
              <mxPoint x="940" y="340" />
              <mxPoint x="940" y="148" />
            </Array>
          </mxGeometry>
        </mxCell>
        <mxCell id="vqt-JQx8YhfkWItklvtR-46" value="&lt;font style=&quot;font-size: 10px;&quot;&gt;6443&lt;br&gt;HTTPS&lt;br&gt;TLS1.2&lt;/font&gt;" style="edgeLabel;html=1;align=center;verticalAlign=middle;resizable=0;points=[];" parent="SFg6QM7ZS3-27cRyY0Mg-9" vertex="1" connectable="0">
          <mxGeometry x="0.6273" relative="1" as="geometry">
            <mxPoint x="-2" y="-18" as="offset" />
          </mxGeometry>
        </mxCell>
        <mxCell id="vqt-JQx8YhfkWItklvtR-48" style="rounded=1;orthogonalLoop=1;jettySize=auto;html=1;exitX=0.242;exitY=0.931;exitDx=0;exitDy=0;startArrow=none;startFill=0;fillColor=#dae8fc;strokeColor=#6c8ebf;jumpStyle=arc;strokeWidth=2;entryX=0.657;entryY=0.026;entryDx=0;entryDy=0;entryPerimeter=0;exitPerimeter=0;" parent="SFg6QM7ZS3-27cRyY0Mg-6" source="gC-9RXFtl5AX3G4jlq2e-19" target="gC-9RXFtl5AX3G4jlq2e-17" edge="1">
          <mxGeometry relative="1" as="geometry">
            <Array as="points">
              <mxPoint x="1000" y="190" />
              <mxPoint x="960" y="190" />
              <mxPoint x="960" y="200" />
              <mxPoint x="960" y="360" />
              <mxPoint x="920" y="360" />
              <mxPoint x="920" y="440" />
            </Array>
            <mxPoint x="940" y="510" as="targetPoint" />
          </mxGeometry>
        </mxCell>
        <mxCell id="vqt-JQx8YhfkWItklvtR-49" value="&lt;font style=&quot;font-size: 10px;&quot;&gt;10251&lt;br&gt;HTTP&lt;/font&gt;" style="edgeLabel;html=1;align=center;verticalAlign=middle;resizable=0;points=[];" parent="vqt-JQx8YhfkWItklvtR-48" vertex="1" connectable="0">
          <mxGeometry x="0.7066" y="1" relative="1" as="geometry">
            <mxPoint x="29" y="-77" as="offset" />
          </mxGeometry>
        </mxCell>
        <mxCell id="ec_nTFersLw2R51HPFCD-24" value="" style="endArrow=classic;startArrow=classic;html=1;entryX=0.5;entryY=1;entryDx=0;entryDy=0;fillColor=#dae8fc;strokeColor=#6c8ebf;jumpStyle=arc;strokeWidth=2;exitX=1;exitY=0.5;exitDx=0;exitDy=0;" parent="SFg6QM7ZS3-27cRyY0Mg-6" source="gC-9RXFtl5AX3G4jlq2e-17" target="ec_nTFersLw2R51HPFCD-16" edge="1">
          <mxGeometry width="50" height="50" relative="1" as="geometry">
            <mxPoint x="907" y="580" as="sourcePoint" />
            <mxPoint x="230" y="580" as="targetPoint" />
            <Array as="points">
              <mxPoint x="1020" y="540" />
            </Array>
          </mxGeometry>
        </mxCell>
        <mxCell id="ec_nTFersLw2R51HPFCD-25" value="IPC" style="edgeLabel;html=1;align=center;verticalAlign=middle;resizable=0;points=[];" parent="ec_nTFersLw2R51HPFCD-24" vertex="1" connectable="0">
          <mxGeometry x="0.0157" y="2" relative="1" as="geometry">
            <mxPoint as="offset" />
          </mxGeometry>
        </mxCell>
        <mxCell id="ec_nTFersLw2R51HPFCD-36" value="" style="endArrow=classic;startArrow=classic;html=1;entryX=0.5;entryY=1;entryDx=0;entryDy=0;exitX=0.5;exitY=0;exitDx=0;exitDy=0;fillColor=#dae8fc;strokeColor=#6c8ebf;edgeStyle=orthogonalEdgeStyle;strokeWidth=2;" parent="SFg6QM7ZS3-27cRyY0Mg-6" source="ec_nTFersLw2R51HPFCD-16" target="ec_nTFersLw2R51HPFCD-15" edge="1">
          <mxGeometry width="50" height="50" relative="1" as="geometry">
            <mxPoint x="330" y="520" as="sourcePoint" />
            <mxPoint x="380" y="470" as="targetPoint" />
          </mxGeometry>
        </mxCell>
        <mxCell id="ec_nTFersLw2R51HPFCD-39" value="IPC" style="edgeLabel;html=1;align=center;verticalAlign=middle;resizable=0;points=[];" parent="ec_nTFersLw2R51HPFCD-36" vertex="1" connectable="0">
          <mxGeometry x="0.1134" y="-1" relative="1" as="geometry">
            <mxPoint as="offset" />
          </mxGeometry>
        </mxCell>
        <mxCell id="SFg6QM7ZS3-27cRyY0Mg-13" value="" style="endArrow=classic;html=1;entryX=1;entryY=0;entryDx=0;entryDy=0;exitX=1;exitY=0.5;exitDx=0;exitDy=0;edgeStyle=orthogonalEdgeStyle;fillColor=#dae8fc;strokeColor=#6c8ebf;startArrow=classic;startFill=1;jumpStyle=arc;strokeWidth=2;" parent="SFg6QM7ZS3-27cRyY0Mg-6" source="gC-9RXFtl5AX3G4jlq2e-21" target="gC-9RXFtl5AX3G4jlq2e-22" edge="1">
          <mxGeometry width="50" height="50" relative="1" as="geometry">
            <mxPoint x="840" y="540" as="sourcePoint" />
            <mxPoint x="890" y="490" as="targetPoint" />
            <Array as="points">
              <mxPoint x="1040" y="710" />
              <mxPoint x="1040" y="765" />
              <mxPoint x="991" y="765" />
            </Array>
          </mxGeometry>
        </mxCell>
        <mxCell id="vqt-JQx8YhfkWItklvtR-53" value="IPC" style="edgeLabel;html=1;align=center;verticalAlign=middle;resizable=0;points=[];" parent="SFg6QM7ZS3-27cRyY0Mg-13" vertex="1" connectable="0">
          <mxGeometry x="0.168" y="1" relative="1" as="geometry">
            <mxPoint x="5" y="-26" as="offset" />
          </mxGeometry>
        </mxCell>
        <mxCell id="MrJL4Cl_HdAFYrtcQk6u-28" style="edgeStyle=orthogonalEdgeStyle;rounded=1;orthogonalLoop=1;jettySize=auto;html=1;exitX=1;exitY=0.5;exitDx=0;exitDy=0;entryX=0.5;entryY=0;entryDx=0;entryDy=0;startArrow=classic;startFill=1;endArrow=classic;endFill=1;strokeColor=#6c8ebf;fillColor=#dae8fc;jumpStyle=arc;strokeWidth=2;" parent="SFg6QM7ZS3-27cRyY0Mg-6" source="gC-9RXFtl5AX3G4jlq2e-22" target="MrJL4Cl_HdAFYrtcQk6u-35" edge="1">
          <mxGeometry relative="1" as="geometry">
            <mxPoint x="1137" y="425" as="targetPoint" />
          </mxGeometry>
        </mxCell>
        <mxCell id="MrJL4Cl_HdAFYrtcQk6u-29" value="IPC" style="edgeLabel;html=1;align=center;verticalAlign=middle;resizable=0;points=[];" parent="MrJL4Cl_HdAFYrtcQk6u-28" vertex="1" connectable="0">
          <mxGeometry x="-0.0095" y="1" relative="1" as="geometry">
            <mxPoint y="-1" as="offset" />
          </mxGeometry>
        </mxCell>
        <mxCell id="MrJL4Cl_HdAFYrtcQk6u-59" style="edgeStyle=orthogonalEdgeStyle;rounded=1;orthogonalLoop=1;jettySize=auto;html=1;exitX=0;exitY=0.5;exitDx=0;exitDy=0;entryX=0.5;entryY=0;entryDx=0;entryDy=0;startArrow=classic;startFill=1;endArrow=none;endFill=0;strokeColor=#6c8ebf;strokeWidth=2;fillColor=#dae8fc;jumpStyle=arc;" parent="SFg6QM7ZS3-27cRyY0Mg-6" source="MrJL4Cl_HdAFYrtcQk6u-34" target="MrJL4Cl_HdAFYrtcQk6u-53" edge="1">
          <mxGeometry relative="1" as="geometry" />
        </mxCell>
        <mxCell id="ec_nTFersLw2R51HPFCD-30" value="&lt;span style=&quot;color: rgb(0, 0, 0); font-family: helvetica; font-style: normal; font-weight: 400; letter-spacing: normal; text-align: center; text-indent: 0px; text-transform: none; word-spacing: 0px; background-color: rgb(255, 255, 255); display: inline; float: none;&quot;&gt;&lt;font style=&quot;font-size: 10px;&quot;&gt;6443&lt;br&gt;HTTPS&lt;br&gt;TLS1.2&lt;/font&gt;&lt;/span&gt;" style="endArrow=classic;html=1;exitX=0;exitY=1;exitDx=0;exitDy=0;fillColor=#dae8fc;strokeColor=#6c8ebf;jumpStyle=arc;strokeWidth=2;" parent="SFg6QM7ZS3-27cRyY0Mg-6" source="ec_nTFersLw2R51HPFCD-14" edge="1">
          <mxGeometry x="0.3913" y="2" width="50" height="50" relative="1" as="geometry">
            <mxPoint x="300" y="100" as="sourcePoint" />
            <mxPoint x="1030" y="80" as="targetPoint" />
            <Array as="points">
              <mxPoint x="1140" y="48" />
              <mxPoint x="1030" y="48" />
            </Array>
            <mxPoint as="offset" />
          </mxGeometry>
        </mxCell>
        <mxCell id="ec_nTFersLw2R51HPFCD-33" value="" style="endArrow=classic;html=1;entryX=0;entryY=0.5;entryDx=0;entryDy=0;fillColor=#dae8fc;strokeColor=#6c8ebf;jumpStyle=arc;exitX=0.5;exitY=0;exitDx=0;exitDy=0;strokeWidth=2;" parent="SFg6QM7ZS3-27cRyY0Mg-6" source="gC-9RXFtl5AX3G4jlq2e-19" target="ec_nTFersLw2R51HPFCD-14" edge="1">
          <mxGeometry width="50" height="50" relative="1" as="geometry">
            <mxPoint x="210" y="210" as="sourcePoint" />
            <mxPoint x="310" y="-10" as="targetPoint" />
            <Array as="points">
              <mxPoint x="1020" y="20" />
            </Array>
          </mxGeometry>
        </mxCell>
        <mxCell id="ec_nTFersLw2R51HPFCD-35" value="10256/HTTP&lt;br style=&quot;font-size: 10px;&quot;&gt;10249/HTTP" style="edgeLabel;html=1;align=center;verticalAlign=middle;resizable=0;points=[];fontSize=10;" parent="ec_nTFersLw2R51HPFCD-33" vertex="1" connectable="0">
          <mxGeometry x="0.8525" relative="1" as="geometry">
            <mxPoint x="-33" as="offset" />
          </mxGeometry>
        </mxCell>
        <mxCell id="ec_nTFersLw2R51HPFCD-40" value="" style="endArrow=none;startArrow=classic;html=1;exitX=0.5;exitY=1;exitDx=0;exitDy=0;entryX=0.5;entryY=0;entryDx=0;entryDy=0;fillColor=#dae8fc;strokeColor=#6c8ebf;strokeWidth=2;jumpStyle=arc;startFill=1;endFill=0;" parent="SFg6QM7ZS3-27cRyY0Mg-6" source="gC-9RXFtl5AX3G4jlq2e-19" target="ec_nTFersLw2R51HPFCD-15" edge="1">
          <mxGeometry width="50" height="50" relative="1" as="geometry">
            <mxPoint x="330" y="350" as="sourcePoint" />
            <mxPoint x="380" y="300" as="targetPoint" />
            <Array as="points">
              <mxPoint x="1020" y="230" />
            </Array>
          </mxGeometry>
        </mxCell>
        <mxCell id="ec_nTFersLw2R51HPFCD-42" value="&lt;br&gt;&lt;span style=&quot;font-size: 10px;&quot;&gt;&lt;br&gt;&lt;/span&gt;" style="edgeLabel;html=1;align=center;verticalAlign=middle;resizable=0;points=[];" parent="ec_nTFersLw2R51HPFCD-40" vertex="1" connectable="0">
          <mxGeometry x="0.7073" y="1" relative="1" as="geometry">
            <mxPoint y="-27" as="offset" />
          </mxGeometry>
        </mxCell>
        <mxCell id="ykCsuxeEQDEMEaqRbWgi-7" value="&lt;font style=&quot;font-size: 10px;&quot;&gt;6443&lt;br&gt;HTTPS&lt;br&gt;TLS1.2&lt;/font&gt;" style="edgeLabel;html=1;align=center;verticalAlign=middle;resizable=0;points=[];" parent="ec_nTFersLw2R51HPFCD-40" vertex="1" connectable="0">
          <mxGeometry x="-0.4665" y="-1" relative="1" as="geometry">
            <mxPoint y="33" as="offset" />
          </mxGeometry>
        </mxCell>
        <mxCell id="ec_nTFersLw2R51HPFCD-15" value="kubelet" style="ellipse;whiteSpace=wrap;html=1;aspect=fixed;strokeColor=#6c8ebf;fillColor=#dae8fc;" parent="SFg6QM7ZS3-27cRyY0Mg-6" vertex="1">
          <mxGeometry x="980" y="260" width="80" height="80" as="geometry" />
        </mxCell>
        <mxCell id="ec_nTFersLw2R51HPFCD-22" value="" style="endArrow=classic;startArrow=classic;html=1;entryX=0;entryY=0.5;entryDx=0;entryDy=0;fillColor=#dae8fc;strokeColor=#6c8ebf;jumpStyle=arc;strokeWidth=2;exitX=1;exitY=0;exitDx=0;exitDy=0;" parent="SFg6QM7ZS3-27cRyY0Mg-6" source="gC-9RXFtl5AX3G4jlq2e-16" target="ec_nTFersLw2R51HPFCD-16" edge="1">
          <mxGeometry width="50" height="50" relative="1" as="geometry">
            <mxPoint x="840" y="540" as="sourcePoint" />
            <mxPoint x="220" y="600" as="targetPoint" />
            <Array as="points">
              <mxPoint x="825" y="480" />
              <mxPoint x="825" y="440" />
            </Array>
          </mxGeometry>
        </mxCell>
        <mxCell id="ec_nTFersLw2R51HPFCD-23" value="IPC" style="edgeLabel;html=1;align=center;verticalAlign=middle;resizable=0;points=[];" parent="ec_nTFersLw2R51HPFCD-22" vertex="1" connectable="0">
          <mxGeometry x="-0.0445" y="1" relative="1" as="geometry">
            <mxPoint as="offset" />
          </mxGeometry>
        </mxCell>
        <mxCell id="gC-9RXFtl5AX3G4jlq2e-23" value="Trust Zones" style="" parent="0" />
        <mxCell id="SFg6QM7ZS3-27cRyY0Mg-23" value="tZ-ClusterNetwork" style="html=1;fontColor=#FF3333;fontStyle=1;align=left;verticalAlign=top;spacing=0;labelBorderColor=none;fillColor=none;dashed=1;strokeWidth=5;strokeColor=#FF3333;spacingLeft=4;spacingTop=-3;" parent="gC-9RXFtl5AX3G4jlq2e-23" vertex="1">
          <mxGeometry x="480" y="-230" width="1340" height="1340" as="geometry" />
        </mxCell>
        <mxCell id="SFg6QM7ZS3-27cRyY0Mg-24" value="tZ-Internet" style="html=1;fontColor=#FF3333;fontStyle=1;align=left;verticalAlign=top;spacing=0;labelBorderColor=none;fillColor=none;dashed=1;strokeWidth=5;strokeColor=#FF3333;spacingLeft=4;spacingTop=-3;" parent="gC-9RXFtl5AX3G4jlq2e-23" vertex="1">
          <mxGeometry x="10" y="110" width="430" height="610" as="geometry" />
        </mxCell>
        <mxCell id="gC-9RXFtl5AX3G4jlq2e-28" value="tZ-ClusterControlPlaneData" style="html=1;fontColor=#FF3333;fontStyle=1;align=left;verticalAlign=top;spacing=0;labelBorderColor=none;fillColor=none;dashed=1;strokeWidth=5;strokeColor=#FF3333;spacingLeft=4;spacingTop=-3;" parent="gC-9RXFtl5AX3G4jlq2e-23" vertex="1">
          <mxGeometry x="670" y="-200" width="630" height="140" as="geometry" />
        </mxCell>
        <mxCell id="gC-9RXFtl5AX3G4jlq2e-24" value="tZ-ClusterDataPlane" style="html=1;fontColor=#FF3333;fontStyle=1;align=left;verticalAlign=top;spacing=0;labelBorderColor=none;fillColor=none;dashed=1;strokeWidth=5;strokeColor=#FF3333;spacingLeft=4;spacingTop=-3;" parent="gC-9RXFtl5AX3G4jlq2e-23" vertex="1">
          <mxGeometry x="670" y="650" width="630" height="400" as="geometry" />
        </mxCell>
        <mxCell id="gC-9RXFtl5AX3G4jlq2e-31" value="tZ-ClusterControlPlane" style="html=1;fontColor=#FF3333;fontStyle=1;align=left;verticalAlign=top;spacing=0;labelBorderColor=none;fillColor=none;dashed=1;strokeWidth=5;strokeColor=#FF3333;spacingLeft=4;spacingTop=-3;" parent="gC-9RXFtl5AX3G4jlq2e-23" vertex="1">
          <mxGeometry x="670" y="-30" width="630" height="650" as="geometry" />
        </mxCell>
        <mxCell id="1" value="Components" style="" parent="0" />
        <mxCell id="ykCsuxeEQDEMEaqRbWgi-21" value="tZ-pod" style="html=1;fontColor=#FF3333;fontStyle=1;align=left;verticalAlign=top;spacing=0;labelBorderColor=none;fillColor=none;dashed=1;strokeWidth=5;strokeColor=#FF3333;spacingLeft=4;spacingTop=-3;" parent="1" vertex="1">
          <mxGeometry x="860" y="480" width="107" height="120" as="geometry" />
        </mxCell>
        <mxCell id="gC-9RXFtl5AX3G4jlq2e-13" style="edgeStyle=orthogonalEdgeStyle;rounded=0;orthogonalLoop=1;jettySize=auto;html=1;exitX=0.5;exitY=1;exitDx=0;exitDy=0;" parent="1" edge="1">
          <mxGeometry relative="1" as="geometry">
            <mxPoint x="97" y="440" as="sourcePoint" />
            <mxPoint x="97" y="440" as="targetPoint" />
          </mxGeometry>
        </mxCell>
        <mxCell id="gC-9RXFtl5AX3G4jlq2e-15" value="etcd" style="shape=partialRectangle;whiteSpace=wrap;html=1;left=0;right=0;fillColor=#dae8fc;strokeColor=#6c8ebf;" parent="1" vertex="1">
          <mxGeometry x="860" y="-180" width="140" height="50" as="geometry" />
        </mxCell>
        <mxCell id="gC-9RXFtl5AX3G4jlq2e-16" value="kube-controller-manager" style="ellipse;whiteSpace=wrap;html=1;aspect=fixed;fillColor=#dae8fc;strokeColor=#6c8ebf;" parent="1" vertex="1">
          <mxGeometry x="757" y="500" width="80" height="80" as="geometry" />
        </mxCell>
        <mxCell id="gC-9RXFtl5AX3G4jlq2e-17" value="kube-scheduler" style="ellipse;whiteSpace=wrap;html=1;aspect=fixed;fillColor=#dae8fc;strokeColor=#6c8ebf;" parent="1" vertex="1">
          <mxGeometry x="867" y="500" width="80" height="80" as="geometry" />
        </mxCell>
        <mxCell id="gC-9RXFtl5AX3G4jlq2e-19" value="kube-apiserver" style="ellipse;whiteSpace=wrap;html=1;aspect=fixed;fillColor=#dae8fc;strokeColor=#6c8ebf;" parent="1" vertex="1">
          <mxGeometry x="980" y="80" width="80" height="80" as="geometry" />
        </mxCell>
        <mxCell id="gC-9RXFtl5AX3G4jlq2e-20" value="kube-proxy" style="ellipse;whiteSpace=wrap;html=1;aspect=fixed;fillColor=#dae8fc;strokeColor=#6c8ebf;" parent="1" vertex="1">
          <mxGeometry x="1161" y="710" width="80" height="80" as="geometry" />
        </mxCell>
        <mxCell id="gC-9RXFtl5AX3G4jlq2e-21" value="kubelet" style="ellipse;whiteSpace=wrap;html=1;aspect=fixed;fillColor=#dae8fc;strokeColor=#6c8ebf;" parent="1" vertex="1">
          <mxGeometry x="910" y="670" width="80" height="80" as="geometry" />
        </mxCell>
        <mxCell id="gC-9RXFtl5AX3G4jlq2e-22" value="Container Runtime" style="ellipse;whiteSpace=wrap;html=1;aspect=fixed;fillColor=#dae8fc;strokeColor=#6c8ebf;" parent="1" vertex="1">
          <mxGeometry x="880" y="780" width="130" height="130" as="geometry" />
        </mxCell>
        <mxCell id="SFg6QM7ZS3-27cRyY0Mg-25" value="" style="rounded=0;whiteSpace=wrap;html=1;fillColor=#dae8fc;strokeColor=#6c8ebf;" parent="1" vertex="1">
          <mxGeometry x="-906" y="-70" width="120" height="40" as="geometry" />
        </mxCell>
        <mxCell id="SFg6QM7ZS3-27cRyY0Mg-26" value="In Scope Components/Processes" style="text;html=1;strokeColor=none;fillColor=none;align=center;verticalAlign=middle;whiteSpace=wrap;rounded=0;" parent="1" vertex="1">
          <mxGeometry x="-776" y="-60" width="120" height="20" as="geometry" />
        </mxCell>
        <mxCell id="SFg6QM7ZS3-27cRyY0Mg-27" value="" style="rounded=0;whiteSpace=wrap;html=1;fillColor=#ffffff;" parent="1" vertex="1">
          <mxGeometry x="-906" y="-10" width="120" height="40" as="geometry" />
        </mxCell>
        <mxCell id="SFg6QM7ZS3-27cRyY0Mg-28" value="Out of Scope Components/ Processes" style="text;html=1;strokeColor=none;fillColor=none;align=center;verticalAlign=middle;whiteSpace=wrap;rounded=0;" parent="1" vertex="1">
          <mxGeometry x="-761" width="90" height="20" as="geometry" />
        </mxCell>
        <mxCell id="ec_nTFersLw2R51HPFCD-14" value="kube-proxy" style="ellipse;whiteSpace=wrap;html=1;aspect=fixed;strokeColor=#6c8ebf;fillColor=#dae8fc;" parent="1" vertex="1">
          <mxGeometry x="1190" y="-20" width="80" height="80" as="geometry" />
        </mxCell>
        <mxCell id="ec_nTFersLw2R51HPFCD-16" value="Container Runtime" style="ellipse;whiteSpace=wrap;html=1;aspect=fixed;strokeColor=#6c8ebf;fillColor=#dae8fc;" parent="1" vertex="1">
          <mxGeometry x="980" y="400" width="80" height="80" as="geometry" />
        </mxCell>
        <mxCell id="ykCsuxeEQDEMEaqRbWgi-5" value="tZ-pod" style="html=1;fontColor=#FF3333;fontStyle=1;align=left;verticalAlign=top;spacing=0;labelBorderColor=none;fillColor=none;dashed=1;strokeWidth=5;strokeColor=#FF3333;spacingLeft=4;spacingTop=-3;" parent="1" vertex="1">
          <mxGeometry x="747" y="480" width="100" height="120" as="geometry" />
        </mxCell>
        <mxCell id="GEliJEFcfeoHL5CFkAml-4" style="edgeStyle=orthogonalEdgeStyle;rounded=1;orthogonalLoop=1;jettySize=auto;html=1;entryX=0.993;entryY=0.343;entryDx=0;entryDy=0;entryPerimeter=0;fillColor=#dae8fc;strokeColor=#6c8ebf;strokeWidth=2;exitX=0.76;exitY=0.038;exitDx=0;exitDy=0;exitPerimeter=0;" edge="1" parent="1" source="gC-9RXFtl5AX3G4jlq2e-20" target="gC-9RXFtl5AX3G4jlq2e-19">
          <mxGeometry relative="1" as="geometry">
            <Array as="points">
              <mxPoint x="1222" y="107" />
            </Array>
          </mxGeometry>
        </mxCell>
        <mxCell id="GEliJEFcfeoHL5CFkAml-6" value="&lt;font style=&quot;font-size: 10px;&quot;&gt;6443&lt;br&gt;HTTPS&lt;br&gt;TLS1.2&lt;/font&gt;" style="edgeLabel;html=1;align=center;verticalAlign=middle;resizable=0;points=[];" vertex="1" connectable="0" parent="GEliJEFcfeoHL5CFkAml-4">
          <mxGeometry x="0.7654" y="-1" relative="1" as="geometry">
            <mxPoint x="70" y="4" as="offset" />
          </mxGeometry>
        </mxCell>
        <mxCell id="GEliJEFcfeoHL5CFkAml-10" style="edgeStyle=orthogonalEdgeStyle;rounded=1;orthogonalLoop=1;jettySize=auto;html=1;entryX=0.714;entryY=0.056;entryDx=0;entryDy=0;entryPerimeter=0;exitX=0.721;exitY=0.986;exitDx=0;exitDy=0;exitPerimeter=0;strokeWidth=2;fillColor=#dae8fc;strokeColor=#6c8ebf;" edge="1" parent="1" source="gC-9RXFtl5AX3G4jlq2e-19" target="ec_nTFersLw2R51HPFCD-15">
          <mxGeometry relative="1" as="geometry">
            <Array as="points">
              <mxPoint x="1080" y="159" />
              <mxPoint x="1080" y="240" />
              <mxPoint x="1037" y="240" />
            </Array>
          </mxGeometry>
        </mxCell>
        <mxCell id="GEliJEFcfeoHL5CFkAml-11" value="&lt;font style=&quot;font-size: 10px;&quot;&gt;10250&lt;br style=&quot;border-color: var(--border-color);&quot;&gt;HTTPS&lt;br style=&quot;border-color: var(--border-color);&quot;&gt;TLS1.2&lt;/font&gt;" style="edgeLabel;html=1;align=center;verticalAlign=middle;resizable=0;points=[];" vertex="1" connectable="0" parent="GEliJEFcfeoHL5CFkAml-10">
          <mxGeometry x="-0.5398" y="1" relative="1" as="geometry">
            <mxPoint x="-11" y="30" as="offset" />
          </mxGeometry>
        </mxCell>
        <mxCell id="GEliJEFcfeoHL5CFkAml-12" style="edgeStyle=orthogonalEdgeStyle;rounded=1;orthogonalLoop=1;jettySize=auto;html=1;entryX=0.936;entryY=0.257;entryDx=0;entryDy=0;entryPerimeter=0;fillColor=#dae8fc;strokeColor=#6c8ebf;strokeWidth=2;exitX=0.971;exitY=0.639;exitDx=0;exitDy=0;exitPerimeter=0;" edge="1" parent="1" source="gC-9RXFtl5AX3G4jlq2e-19" target="gC-9RXFtl5AX3G4jlq2e-21">
          <mxGeometry relative="1" as="geometry">
            <Array as="points">
              <mxPoint x="1120" y="131" />
              <mxPoint x="1120" y="691" />
            </Array>
          </mxGeometry>
        </mxCell>
        <mxCell id="GEliJEFcfeoHL5CFkAml-14" value="&lt;font style=&quot;font-size: 10px;&quot;&gt;10250&lt;br&gt;HTTPS&lt;br&gt;TLS1.2&lt;/font&gt;" style="edgeLabel;html=1;align=center;verticalAlign=middle;resizable=0;points=[];" vertex="1" connectable="0" parent="GEliJEFcfeoHL5CFkAml-12">
          <mxGeometry x="0.8224" y="-1" relative="1" as="geometry">
            <mxPoint x="48" y="10" as="offset" />
          </mxGeometry>
        </mxCell>
        <mxCell id="gC-9RXFtl5AX3G4jlq2e-33" value="Assumptions" style="" parent="0" />
        <mxCell id="gC-9RXFtl5AX3G4jlq2e-34" value="&lt;table border=&quot;1&quot; width=&quot;100%&quot; style=&quot;width: 100% ; height: 100% ; border-collapse: collapse ; border: 1px solid #d6b656&quot;&gt;&lt;tbody&gt;&lt;tr style=&quot;background-color: #fff2cc ; color: #000000 ; border: 1px solid #d6b656&quot;&gt;&lt;th align=&quot;center&quot; colspan=&quot;2&quot;&gt;Assumptions (AS)&lt;/th&gt;&lt;/tr&gt;&lt;tr style=&quot;background-color: #fff2cc ; color: #000000 ; border: 1px solid #d6b656&quot;&gt;&lt;th align=&quot;left&quot; style=&quot;border: 1px solid #d6b656&quot;&gt;ID&lt;/th&gt;&lt;th align=&quot;left&quot; style=&quot;border: 1px solid #d6b656&quot;&gt;Description&lt;/th&gt;&lt;/tr&gt;&lt;tr&gt;&lt;td&gt;AS01&lt;/td&gt;&lt;td&gt;Fault-tolerance and high availability are not in scope for this model&lt;/td&gt;&lt;/tr&gt;&lt;tr&gt;&lt;td&gt;AS02&lt;/td&gt;&lt;td&gt;Two certificate authorities (CAs) are in scope for this model:&lt;br&gt;one for the cluster and one for etcd.&lt;/td&gt;&lt;/tr&gt;&lt;tr&gt;&lt;td&gt;AS03&lt;/td&gt;&lt;td&gt;Within this model, the kube-proxy is running as a service in the host&lt;br&gt;and using a config file.&lt;/td&gt;&lt;/tr&gt;&lt;tr&gt;&lt;td&gt;AS04&lt;/td&gt;&lt;td&gt;Container Runtime installation and related files are out of scope for&lt;br&gt;this model.&lt;/td&gt;&lt;/tr&gt;&lt;tr&gt;&lt;td&gt;AS05&lt;/td&gt;&lt;td&gt;Within this model, there are no business-type K8s workloads scheduled in &lt;br&gt;the master node.&lt;/td&gt;&lt;/tr&gt;&lt;tr&gt;&lt;td&gt;AS06&lt;/td&gt;&lt;td&gt;Within this model, K8s admission controllers include: ResourceQuota,&lt;br&gt;LimitRanger, PodSecurity(Policy), and ImagePolicyWebhook.&lt;/td&gt;&lt;/tr&gt;&lt;tr&gt;&lt;td&gt;AS07&lt;/td&gt;&lt;td&gt;Within this model, K8s authorisation is limited to: RBAC, Node,&lt;br&gt;and Webhook.&lt;/td&gt;&lt;/tr&gt;&lt;tr&gt;&lt;td&gt;AS08&lt;/td&gt;&lt;td&gt;Within this model, K8s encryption is implemented via&lt;br&gt;EncryptionConfiguration and applies for data at rest only.&lt;/td&gt;&lt;/tr&gt;&lt;tr&gt;&lt;td&gt;AS09&lt;/td&gt;&lt;td&gt;Within this model, K8s MutatingAdmissionController enables:&lt;br&gt;disable service account token auto-mount,&lt;br&gt;PodSecurityContext/ContainerSecurityContext,&lt;br&gt;AppArmor,&lt;br&gt;container sandboxing,&lt;br&gt;and application logging consumption.&lt;/td&gt;&lt;/tr&gt;&lt;tr&gt;&lt;td&gt;AS10&lt;/td&gt;&lt;td&gt;Within this model, K8s authentication is limited to: client certificates,&lt;br&gt;service account tokens, and OIDC tokens.&lt;/td&gt;&lt;/tr&gt;&lt;tr&gt;&lt;td&gt;AS11&lt;/td&gt;&lt;td&gt;AV02, AV03, AV07, AV08, AV09, AV10, AV12, and AV13 are being taken&lt;br&gt;into account under the assumption that the hosts holding the cluster &lt;br&gt;control plane&#39;s components are publicly exposing them.&lt;/td&gt;&lt;/tr&gt;&lt;/tbody&gt;&lt;/table&gt;" style="text;html=1;strokeColor=#c0c0c0;overflow=fill;rounded=0;shadow=1;labelBackgroundColor=#ffffff;fontColor=#000000;align=left;fillColor=#ffffff;" parent="gC-9RXFtl5AX3G4jlq2e-33" vertex="1">
          <mxGeometry x="-480" y="280" width="440" height="480" as="geometry" />
        </mxCell>
        <mxCell id="SFg6QM7ZS3-27cRyY0Mg-21" value="Threat Objects" style="" parent="0" />
        <mxCell id="SFg6QM7ZS3-27cRyY0Mg-22" value="&lt;table border=&quot;1&quot; width=&quot;100%&quot; style=&quot;width: 100% ; height: 100% ; border-collapse: collapse ; border: 1px solid #d6b656&quot;&gt;&lt;tbody&gt;&lt;tr style=&quot;background-color: #fff2cc ; color: #000000 ; border: 1px solid #d6b656&quot;&gt;&lt;th align=&quot;center&quot; colspan=&quot;2&quot;&gt;Threat Objects (TO)&lt;/th&gt;&lt;/tr&gt;&lt;tr style=&quot;background-color: #fff2cc ; color: #000000 ; border: 1px solid #d6b656&quot;&gt;&lt;th align=&quot;left&quot; style=&quot;border: 1px solid #d6b656&quot;&gt;ID&lt;/th&gt;&lt;th align=&quot;left&quot; style=&quot;border: 1px solid #d6b656&quot;&gt;Description&lt;/th&gt;&lt;/tr&gt;&lt;tr&gt;&lt;td style=&quot;border: 1px solid #d6b656&quot;&gt;TO01&lt;/td&gt;&lt;td style=&quot;border: 1px solid #d6b656&quot;&gt;Cluster&#39;s CA&amp;nbsp;x509&amp;nbsp;cert/key pair.&lt;br&gt;&lt;/td&gt;&lt;/tr&gt;&lt;tr&gt;&lt;td&gt;TO02&lt;/td&gt;&lt;td&gt;kube-apiserver&#39;s server x509 cert/key&amp;nbsp;pair.&lt;br&gt;&lt;/td&gt;&lt;/tr&gt;&lt;tr&gt;&lt;td&gt;TO03&lt;/td&gt;&lt;td&gt;kube-apiserver&#39;s etcd-and-kubelet client x509 cert/key pairs.&lt;br&gt;&lt;/td&gt;&lt;/tr&gt;&lt;tr&gt;&lt;td&gt;TO04&lt;/td&gt;&lt;td&gt;Cluster&#39;s service accounts signing x509 cert/key pair.&lt;br&gt;&lt;/td&gt;&lt;/tr&gt;&lt;tr&gt;&lt;td&gt;TO05&lt;/td&gt;&lt;td&gt;kubernetes-admin&#39;s kubeconfig file: client x509 cert/key pair embedded.&lt;br&gt;&lt;/td&gt;&lt;/tr&gt;&lt;tr&gt;&lt;td&gt;TO06&lt;/td&gt;&lt;td&gt;kube-scheduler&#39;s kubeconfig file: client x509 cert/key pair embedded.&lt;br&gt;&lt;/td&gt;&lt;/tr&gt;&lt;tr&gt;&lt;td&gt;TO07&lt;/td&gt;&lt;td&gt;kube-controller-manager&#39;s kubeconfig file: client x509 cert/key pair embedded.&lt;br&gt;&lt;/td&gt;&lt;/tr&gt;&lt;tr&gt;&lt;td&gt;TO08&lt;/td&gt;&lt;td&gt;kube-apiserver&#39;s static pod manifest file.&lt;br&gt;&lt;/td&gt;&lt;/tr&gt;&lt;tr&gt;&lt;td&gt;TO09&lt;/td&gt;&lt;td&gt;kube-controller-manager&#39;s static pod manifest file.&lt;br&gt;&lt;/td&gt;&lt;/tr&gt;&lt;tr&gt;&lt;td&gt;TO10&lt;/td&gt;&lt;td&gt;kube-scheduler&#39;s static pod manifest file.&lt;br&gt;&lt;/td&gt;&lt;/tr&gt;&lt;tr&gt;&lt;td&gt;TO11&lt;/td&gt;&lt;td&gt;Cluster&#39;s audit log directory.&lt;br&gt;&lt;/td&gt;&lt;/tr&gt;&lt;tr&gt;&lt;td&gt;TO12&lt;/td&gt;&lt;td&gt;Cluster&#39;s audit policy file.&lt;br&gt;&lt;/td&gt;&lt;/tr&gt;&lt;tr&gt;&lt;td&gt;TO13&lt;/td&gt;&lt;td&gt;Cluster&#39;s encryption provider config file.&lt;br&gt;&lt;/td&gt;&lt;/tr&gt;&lt;tr&gt;&lt;td&gt;TO14&lt;/td&gt;&lt;td&gt;x509 certificate for the CA that signed OIDC&#39;s web certificate.&lt;br&gt;&lt;/td&gt;&lt;/tr&gt;&lt;tr&gt;&lt;td&gt;TO15&lt;/td&gt;&lt;td&gt;etcd&#39;s CA x509 cert/key pair.&lt;br&gt;&lt;/td&gt;&lt;/tr&gt;&lt;tr&gt;&lt;td&gt;TO16&lt;/td&gt;&lt;td&gt;etcd&#39;s server x509 cert/key pair.&lt;br&gt;&lt;/td&gt;&lt;/tr&gt;&lt;tr&gt;&lt;td&gt;TO17&lt;/td&gt;&lt;td&gt;etcd&#39;s data directory.&lt;br&gt;&lt;/td&gt;&lt;/tr&gt;&lt;tr&gt;&lt;td&gt;TO18&lt;/td&gt;&lt;td&gt;Cluster&#39;s desired state.&lt;br&gt;&lt;/td&gt;&lt;/tr&gt;&lt;tr&gt;&lt;td&gt;TO19&lt;/td&gt;&lt;td&gt;Master node&#39;s etcd&#39;s CA x509 cert.&lt;/td&gt;&lt;/tr&gt;&lt;tr&gt;&lt;td&gt;TO20&lt;/td&gt;&lt;td&gt;Master node&#39;s kubelet&#39;s kubeconfig file: client x509 cert/key pair embedded.&lt;/td&gt;&lt;/tr&gt;&lt;tr&gt;&lt;td&gt;TO21&lt;/td&gt;&lt;td&gt;Master node&#39;s kubelet&#39; service file.&lt;/td&gt;&lt;/tr&gt;&lt;tr&gt;&lt;td&gt;TO22&lt;/td&gt;&lt;td&gt;Master node&#39;s kubelet&#39;s binary.&lt;/td&gt;&lt;/tr&gt;&lt;tr&gt;&lt;td&gt;TO23&lt;/td&gt;&lt;td&gt;Master node&#39;s kubelet&#39;s config file.&lt;/td&gt;&lt;/tr&gt;&lt;tr&gt;&lt;td&gt;TO24&lt;/td&gt;&lt;td&gt;Master node&#39;s kubelet&#39;s directory.&lt;/td&gt;&lt;/tr&gt;&lt;tr&gt;&lt;td&gt;TO25&lt;/td&gt;&lt;td&gt;Master node&#39;s kube-proxy&#39;s kubeconfig file: client x509 cert/key pair embedded.&lt;/td&gt;&lt;/tr&gt;&lt;tr&gt;&lt;td&gt;TO26&lt;/td&gt;&lt;td&gt;Master node&#39;s kube-proxy&#39; service file.&lt;/td&gt;&lt;/tr&gt;&lt;tr&gt;&lt;td&gt;TO27&lt;/td&gt;&lt;td&gt;Master node&#39;s kube-proxy&#39;s binary.&lt;/td&gt;&lt;/tr&gt;&lt;tr&gt;&lt;td&gt;TO28&lt;/td&gt;&lt;td&gt;Master node&#39;s kube-proxy&#39;s config file.&lt;/td&gt;&lt;/tr&gt;&lt;tr&gt;&lt;td&gt;TO29&lt;/td&gt;&lt;td&gt;Master node&#39;s CNI directories.&lt;/td&gt;&lt;/tr&gt;&lt;tr&gt;&lt;td&gt;TO30&lt;/td&gt;&lt;td&gt;Worker node&#39;s kubelet&#39;s kubeconfig file: client x509 cert/key pair embedded.&lt;/td&gt;&lt;/tr&gt;&lt;tr&gt;&lt;td&gt;TO31&lt;/td&gt;&lt;td&gt;Worker node&#39;s kubelet&#39; service file.&lt;br&gt;&lt;/td&gt;&lt;/tr&gt;&lt;tr&gt;&lt;td&gt;TO32&lt;/td&gt;&lt;td&gt;Worker node&#39;s kubelet&#39;s binary.&lt;/td&gt;&lt;/tr&gt;&lt;tr&gt;&lt;td&gt;TO33&lt;/td&gt;&lt;td&gt;Worker node&#39;s kubelet&#39;s config file.&lt;/td&gt;&lt;/tr&gt;&lt;tr&gt;&lt;td&gt;TO34&lt;/td&gt;&lt;td&gt;Worker node&#39;s kubelet&#39;s directory.&lt;/td&gt;&lt;/tr&gt;&lt;tr&gt;&lt;td&gt;TO35&lt;/td&gt;&lt;td&gt;Worker node&#39;s cluster&#39;s CA x509 cert.&lt;/td&gt;&lt;/tr&gt;&lt;tr&gt;&lt;td&gt;TO36&lt;/td&gt;&lt;td&gt;Worker node&#39;s kube-proxy&#39;s kubeconfig file: client x509 cert/key&amp;nbsp;pair embedded.&lt;/td&gt;&lt;/tr&gt;&lt;tr&gt;&lt;td&gt;TO37&lt;/td&gt;&lt;td&gt;Worker node&#39;s kube-proxy&#39; service file.&lt;br&gt;&lt;/td&gt;&lt;/tr&gt;&lt;tr&gt;&lt;td&gt;TO38&lt;/td&gt;&lt;td&gt;Worker node&#39;s kube-proxy&#39;s binary.&lt;br&gt;&lt;/td&gt;&lt;/tr&gt;&lt;tr&gt;&lt;td&gt;TO39&lt;/td&gt;&lt;td&gt;Worker node&#39;s kube-proxy&#39; config file.&lt;/td&gt;&lt;/tr&gt;&lt;tr&gt;&lt;td&gt;TO40&lt;/td&gt;&lt;td&gt;Worker node&#39;s&amp;nbsp;CNI directories.&lt;/td&gt;&lt;/tr&gt;&lt;tr&gt;&lt;td&gt;TO41&lt;/td&gt;&lt;td&gt;Cluster&#39;s admission control config file.&lt;/td&gt;&lt;/tr&gt;&lt;tr&gt;&lt;td&gt;TO42&lt;/td&gt;&lt;td&gt;Cluster&#39;s authorization webhook config file.&lt;/td&gt;&lt;/tr&gt;&lt;/tbody&gt;&lt;/table&gt;" style="text;html=1;strokeColor=#c0c0c0;fillColor=#ffffff;overflow=fill;rounded=0;shadow=1;labelBackgroundColor=#ffffff;fontColor=#000000;align=left;" parent="SFg6QM7ZS3-27cRyY0Mg-21" vertex="1">
          <mxGeometry x="-1000" y="70" width="476" height="770" as="geometry" />
        </mxCell>
        <mxCell id="vqt-JQx8YhfkWItklvtR-24" value="TO01" style="text;html=1;strokeColor=#d6b656;fillColor=#fff2cc;align=center;verticalAlign=middle;whiteSpace=wrap;overflow=hidden;" parent="SFg6QM7ZS3-27cRyY0Mg-21" vertex="1">
          <mxGeometry x="690" width="40" height="20" as="geometry" />
        </mxCell>
        <mxCell id="vqt-JQx8YhfkWItklvtR-25" value="TO02" style="text;html=1;strokeColor=#d6b656;fillColor=#fff2cc;align=center;verticalAlign=middle;whiteSpace=wrap;overflow=hidden;" parent="SFg6QM7ZS3-27cRyY0Mg-21" vertex="1">
          <mxGeometry x="690" y="20" width="40" height="20" as="geometry" />
        </mxCell>
        <mxCell id="vqt-JQx8YhfkWItklvtR-26" value="TO15" style="text;html=1;strokeColor=#d6b656;fillColor=#fff2cc;align=center;verticalAlign=middle;whiteSpace=wrap;overflow=hidden;" parent="SFg6QM7ZS3-27cRyY0Mg-21" vertex="1">
          <mxGeometry x="1120" y="-180" width="40" height="20" as="geometry" />
        </mxCell>
        <mxCell id="vqt-JQx8YhfkWItklvtR-27" value="TO16" style="text;html=1;strokeColor=#d6b656;fillColor=#fff2cc;align=center;verticalAlign=middle;whiteSpace=wrap;overflow=hidden;" parent="SFg6QM7ZS3-27cRyY0Mg-21" vertex="1">
          <mxGeometry x="1120" y="-160" width="40" height="20" as="geometry" />
        </mxCell>
        <mxCell id="vqt-JQx8YhfkWItklvtR-28" value="TO03" style="text;html=1;strokeColor=#d6b656;fillColor=#fff2cc;align=center;verticalAlign=middle;whiteSpace=wrap;overflow=hidden;" parent="SFg6QM7ZS3-27cRyY0Mg-21" vertex="1">
          <mxGeometry x="690" y="40" width="40" height="20" as="geometry" />
        </mxCell>
        <mxCell id="vqt-JQx8YhfkWItklvtR-29" value="TO04" style="text;html=1;strokeColor=#d6b656;fillColor=#fff2cc;align=center;verticalAlign=middle;whiteSpace=wrap;overflow=hidden;" parent="SFg6QM7ZS3-27cRyY0Mg-21" vertex="1">
          <mxGeometry x="690" y="60" width="40" height="20" as="geometry" />
        </mxCell>
        <mxCell id="vqt-JQx8YhfkWItklvtR-30" value="TO05" style="text;html=1;strokeColor=#d6b656;fillColor=#fff2cc;align=center;verticalAlign=middle;whiteSpace=wrap;overflow=hidden;" parent="SFg6QM7ZS3-27cRyY0Mg-21" vertex="1">
          <mxGeometry x="690" y="80" width="40" height="20" as="geometry" />
        </mxCell>
        <mxCell id="vqt-JQx8YhfkWItklvtR-31" value="TO06" style="text;html=1;strokeColor=#d6b656;fillColor=#fff2cc;align=center;verticalAlign=middle;whiteSpace=wrap;overflow=hidden;" parent="SFg6QM7ZS3-27cRyY0Mg-21" vertex="1">
          <mxGeometry x="690" y="100" width="40" height="20" as="geometry" />
        </mxCell>
        <mxCell id="vqt-JQx8YhfkWItklvtR-32" value="TO07" style="text;html=1;strokeColor=#d6b656;fillColor=#fff2cc;align=center;verticalAlign=middle;whiteSpace=wrap;overflow=hidden;" parent="SFg6QM7ZS3-27cRyY0Mg-21" vertex="1">
          <mxGeometry x="690" y="120" width="40" height="20" as="geometry" />
        </mxCell>
        <mxCell id="vqt-JQx8YhfkWItklvtR-33" value="TO08" style="text;html=1;strokeColor=#d6b656;fillColor=#fff2cc;align=center;verticalAlign=middle;whiteSpace=wrap;overflow=hidden;" parent="SFg6QM7ZS3-27cRyY0Mg-21" vertex="1">
          <mxGeometry x="690" y="140" width="40" height="20" as="geometry" />
        </mxCell>
        <mxCell id="vqt-JQx8YhfkWItklvtR-34" value="TO09" style="text;html=1;strokeColor=#d6b656;fillColor=#fff2cc;align=center;verticalAlign=middle;whiteSpace=wrap;overflow=hidden;" parent="SFg6QM7ZS3-27cRyY0Mg-21" vertex="1">
          <mxGeometry x="690" y="160" width="40" height="20" as="geometry" />
        </mxCell>
        <mxCell id="vqt-JQx8YhfkWItklvtR-35" value="TO10" style="text;html=1;strokeColor=#d6b656;fillColor=#fff2cc;align=center;verticalAlign=middle;whiteSpace=wrap;overflow=hidden;" parent="SFg6QM7ZS3-27cRyY0Mg-21" vertex="1">
          <mxGeometry x="690" y="180" width="40" height="20" as="geometry" />
        </mxCell>
        <mxCell id="vqt-JQx8YhfkWItklvtR-36" value="TO18" style="text;html=1;strokeColor=#d6b656;fillColor=#fff2cc;align=center;verticalAlign=middle;whiteSpace=wrap;overflow=hidden;" parent="SFg6QM7ZS3-27cRyY0Mg-21" vertex="1">
          <mxGeometry x="960" y="-150" width="40" height="20" as="geometry" />
        </mxCell>
        <mxCell id="THybIXlN0M4-kheyNrdm-1" value="TO17" style="text;html=1;strokeColor=#d6b656;fillColor=#fff2cc;align=center;verticalAlign=middle;whiteSpace=wrap;overflow=hidden;" parent="SFg6QM7ZS3-27cRyY0Mg-21" vertex="1">
          <mxGeometry x="1120" y="-140" width="40" height="20" as="geometry" />
        </mxCell>
        <mxCell id="THybIXlN0M4-kheyNrdm-2" value="TO11" style="text;html=1;strokeColor=#d6b656;fillColor=#fff2cc;align=center;verticalAlign=middle;whiteSpace=wrap;overflow=hidden;" parent="SFg6QM7ZS3-27cRyY0Mg-21" vertex="1">
          <mxGeometry x="690" y="200" width="40" height="20" as="geometry" />
        </mxCell>
        <mxCell id="THybIXlN0M4-kheyNrdm-3" value="TO12" style="text;html=1;strokeColor=#d6b656;fillColor=#fff2cc;align=center;verticalAlign=middle;whiteSpace=wrap;overflow=hidden;" parent="SFg6QM7ZS3-27cRyY0Mg-21" vertex="1">
          <mxGeometry x="690" y="220" width="40" height="20" as="geometry" />
        </mxCell>
        <mxCell id="THybIXlN0M4-kheyNrdm-4" value="TO13" style="text;html=1;strokeColor=#d6b656;fillColor=#fff2cc;align=center;verticalAlign=middle;whiteSpace=wrap;overflow=hidden;" parent="SFg6QM7ZS3-27cRyY0Mg-21" vertex="1">
          <mxGeometry x="690" y="240" width="40" height="20" as="geometry" />
        </mxCell>
        <mxCell id="THybIXlN0M4-kheyNrdm-5" value="TO14" style="text;html=1;strokeColor=#d6b656;fillColor=#fff2cc;align=center;verticalAlign=middle;whiteSpace=wrap;overflow=hidden;" parent="SFg6QM7ZS3-27cRyY0Mg-21" vertex="1">
          <mxGeometry x="690" y="260" width="40" height="20" as="geometry" />
        </mxCell>
        <mxCell id="THybIXlN0M4-kheyNrdm-7" value="TO20" style="text;html=1;strokeColor=#d6b656;fillColor=#fff2cc;align=center;verticalAlign=middle;whiteSpace=wrap;overflow=hidden;" parent="SFg6QM7ZS3-27cRyY0Mg-21" vertex="1">
          <mxGeometry x="690" y="300" width="40" height="20" as="geometry" />
        </mxCell>
        <mxCell id="THybIXlN0M4-kheyNrdm-8" value="TO21" style="text;html=1;strokeColor=#d6b656;fillColor=#fff2cc;align=center;verticalAlign=middle;whiteSpace=wrap;overflow=hidden;" parent="SFg6QM7ZS3-27cRyY0Mg-21" vertex="1">
          <mxGeometry x="690" y="320" width="40" height="20" as="geometry" />
        </mxCell>
        <mxCell id="THybIXlN0M4-kheyNrdm-9" value="TO22" style="text;html=1;strokeColor=#d6b656;fillColor=#fff2cc;align=center;verticalAlign=middle;whiteSpace=wrap;overflow=hidden;" parent="SFg6QM7ZS3-27cRyY0Mg-21" vertex="1">
          <mxGeometry x="690" y="340" width="40" height="20" as="geometry" />
        </mxCell>
        <mxCell id="THybIXlN0M4-kheyNrdm-10" value="TO23" style="text;html=1;strokeColor=#d6b656;fillColor=#fff2cc;align=center;verticalAlign=middle;whiteSpace=wrap;overflow=hidden;" parent="SFg6QM7ZS3-27cRyY0Mg-21" vertex="1">
          <mxGeometry x="690" y="360" width="40" height="20" as="geometry" />
        </mxCell>
        <mxCell id="THybIXlN0M4-kheyNrdm-11" value="TO24" style="text;html=1;strokeColor=#d6b656;fillColor=#fff2cc;align=center;verticalAlign=middle;whiteSpace=wrap;overflow=hidden;" parent="SFg6QM7ZS3-27cRyY0Mg-21" vertex="1">
          <mxGeometry x="730" width="40" height="20" as="geometry" />
        </mxCell>
        <mxCell id="THybIXlN0M4-kheyNrdm-12" value="TO25" style="text;html=1;strokeColor=#d6b656;fillColor=#fff2cc;align=center;verticalAlign=middle;whiteSpace=wrap;overflow=hidden;" parent="SFg6QM7ZS3-27cRyY0Mg-21" vertex="1">
          <mxGeometry x="730" y="20" width="40" height="20" as="geometry" />
        </mxCell>
        <mxCell id="THybIXlN0M4-kheyNrdm-13" value="TO26" style="text;html=1;strokeColor=#d6b656;fillColor=#fff2cc;align=center;verticalAlign=middle;whiteSpace=wrap;overflow=hidden;" parent="SFg6QM7ZS3-27cRyY0Mg-21" vertex="1">
          <mxGeometry x="730" y="40" width="40" height="20" as="geometry" />
        </mxCell>
        <mxCell id="THybIXlN0M4-kheyNrdm-14" value="TO27" style="text;html=1;strokeColor=#d6b656;fillColor=#fff2cc;align=center;verticalAlign=middle;whiteSpace=wrap;overflow=hidden;" parent="SFg6QM7ZS3-27cRyY0Mg-21" vertex="1">
          <mxGeometry x="730" y="60" width="40" height="20" as="geometry" />
        </mxCell>
        <mxCell id="THybIXlN0M4-kheyNrdm-17" value="TO28" style="text;html=1;strokeColor=#d6b656;fillColor=#fff2cc;align=center;verticalAlign=middle;whiteSpace=wrap;overflow=hidden;" parent="SFg6QM7ZS3-27cRyY0Mg-21" vertex="1">
          <mxGeometry x="730" y="80" width="40" height="20" as="geometry" />
        </mxCell>
        <mxCell id="THybIXlN0M4-kheyNrdm-19" value="TO29" style="text;html=1;strokeColor=#d6b656;fillColor=#fff2cc;align=center;verticalAlign=middle;whiteSpace=wrap;overflow=hidden;dashed=1;dashPattern=1 1;" parent="SFg6QM7ZS3-27cRyY0Mg-21" vertex="1">
          <mxGeometry x="730" y="100" width="40" height="20" as="geometry" />
        </mxCell>
        <mxCell id="ec_nTFersLw2R51HPFCD-43" value="TO19" style="text;html=1;strokeColor=#d6b656;fillColor=#fff2cc;align=center;verticalAlign=middle;whiteSpace=wrap;overflow=hidden;" parent="SFg6QM7ZS3-27cRyY0Mg-21" vertex="1">
          <mxGeometry x="690" y="280" width="40" height="20" as="geometry" />
        </mxCell>
        <mxCell id="ec_nTFersLw2R51HPFCD-44" value="TO30" style="text;html=1;strokeColor=#d6b656;fillColor=#fff2cc;align=center;verticalAlign=middle;whiteSpace=wrap;overflow=hidden;" parent="SFg6QM7ZS3-27cRyY0Mg-21" vertex="1">
          <mxGeometry x="690" y="680" width="40" height="20" as="geometry" />
        </mxCell>
        <mxCell id="ec_nTFersLw2R51HPFCD-45" value="TO31" style="text;html=1;strokeColor=#d6b656;fillColor=#fff2cc;align=center;verticalAlign=middle;whiteSpace=wrap;overflow=hidden;" parent="SFg6QM7ZS3-27cRyY0Mg-21" vertex="1">
          <mxGeometry x="690" y="700" width="40" height="20" as="geometry" />
        </mxCell>
        <mxCell id="ec_nTFersLw2R51HPFCD-46" value="TO32" style="text;html=1;strokeColor=#d6b656;fillColor=#fff2cc;align=center;verticalAlign=middle;whiteSpace=wrap;overflow=hidden;" parent="SFg6QM7ZS3-27cRyY0Mg-21" vertex="1">
          <mxGeometry x="690" y="720" width="40" height="20" as="geometry" />
        </mxCell>
        <mxCell id="ec_nTFersLw2R51HPFCD-47" value="TO33" style="text;html=1;strokeColor=#d6b656;fillColor=#fff2cc;align=center;verticalAlign=middle;whiteSpace=wrap;overflow=hidden;" parent="SFg6QM7ZS3-27cRyY0Mg-21" vertex="1">
          <mxGeometry x="690" y="740" width="40" height="20" as="geometry" />
        </mxCell>
        <mxCell id="ec_nTFersLw2R51HPFCD-48" value="TO34" style="text;html=1;strokeColor=#d6b656;fillColor=#fff2cc;align=center;verticalAlign=middle;whiteSpace=wrap;overflow=hidden;" parent="SFg6QM7ZS3-27cRyY0Mg-21" vertex="1">
          <mxGeometry x="690" y="760" width="40" height="20" as="geometry" />
        </mxCell>
        <mxCell id="ec_nTFersLw2R51HPFCD-49" value="TO35" style="text;html=1;strokeColor=#d6b656;fillColor=#fff2cc;align=center;verticalAlign=middle;whiteSpace=wrap;overflow=hidden;" parent="SFg6QM7ZS3-27cRyY0Mg-21" vertex="1">
          <mxGeometry x="690" y="780" width="40" height="20" as="geometry" />
        </mxCell>
        <mxCell id="ec_nTFersLw2R51HPFCD-50" value="TO36" style="text;html=1;strokeColor=#d6b656;fillColor=#fff2cc;align=center;verticalAlign=middle;whiteSpace=wrap;overflow=hidden;" parent="SFg6QM7ZS3-27cRyY0Mg-21" vertex="1">
          <mxGeometry x="730" y="680" width="40" height="20" as="geometry" />
        </mxCell>
        <mxCell id="ec_nTFersLw2R51HPFCD-51" value="TO37" style="text;html=1;strokeColor=#d6b656;fillColor=#fff2cc;align=center;verticalAlign=middle;whiteSpace=wrap;overflow=hidden;" parent="SFg6QM7ZS3-27cRyY0Mg-21" vertex="1">
          <mxGeometry x="730" y="700" width="40" height="20" as="geometry" />
        </mxCell>
        <mxCell id="ec_nTFersLw2R51HPFCD-52" value="TO38" style="text;html=1;strokeColor=#d6b656;fillColor=#fff2cc;align=center;verticalAlign=middle;whiteSpace=wrap;overflow=hidden;" parent="SFg6QM7ZS3-27cRyY0Mg-21" vertex="1">
          <mxGeometry x="730" y="720" width="40" height="20" as="geometry" />
        </mxCell>
        <mxCell id="ec_nTFersLw2R51HPFCD-60" value="TO39" style="text;html=1;strokeColor=#d6b656;fillColor=#fff2cc;align=center;verticalAlign=middle;whiteSpace=wrap;overflow=hidden;" parent="SFg6QM7ZS3-27cRyY0Mg-21" vertex="1">
          <mxGeometry x="730" y="740" width="40" height="20" as="geometry" />
        </mxCell>
        <mxCell id="ec_nTFersLw2R51HPFCD-61" value="TO40" style="text;html=1;strokeColor=#d6b656;fillColor=#fff2cc;align=center;verticalAlign=middle;whiteSpace=wrap;overflow=hidden;" parent="SFg6QM7ZS3-27cRyY0Mg-21" vertex="1">
          <mxGeometry x="730" y="760" width="40" height="20" as="geometry" />
        </mxCell>
        <mxCell id="vsnTTxF1pRMM33WcJsCB-1" value="TO41" style="text;html=1;strokeColor=#d6b656;fillColor=#fff2cc;align=center;verticalAlign=middle;whiteSpace=wrap;overflow=hidden;" parent="SFg6QM7ZS3-27cRyY0Mg-21" vertex="1">
          <mxGeometry x="730" y="120" width="40" height="20" as="geometry" />
        </mxCell>
        <mxCell id="vsnTTxF1pRMM33WcJsCB-2" value="TO42" style="text;html=1;strokeColor=#d6b656;fillColor=#fff2cc;align=center;verticalAlign=middle;whiteSpace=wrap;overflow=hidden;" parent="SFg6QM7ZS3-27cRyY0Mg-21" vertex="1">
          <mxGeometry x="730" y="140" width="40" height="20" as="geometry" />
        </mxCell>
        <mxCell id="SFg6QM7ZS3-27cRyY0Mg-40" value="Threat Actors" style="" parent="0" />
        <mxCell id="SFg6QM7ZS3-27cRyY0Mg-41" value="&lt;table border=&quot;1&quot; width=&quot;100%&quot; style=&quot;width: 100% ; height: 100% ; border-collapse: collapse ; border: 1px solid #b85450&quot;&gt;&lt;tbody&gt;&lt;tr style=&quot;background-color: #f8cecc ; color: #000000 ; border: 1px solid #b85450&quot;&gt;&lt;th align=&quot;center&quot; colspan=&quot;2&quot;&gt;Threat Actors (TA)&lt;/th&gt;&lt;/tr&gt;&lt;tr style=&quot;background-color: #f8cecc ; color: #000000 ; border: 1px solid #b85450&quot;&gt;&lt;th align=&quot;left&quot; style=&quot;border: 1px solid #b85450&quot;&gt;ID&lt;/th&gt;&lt;th align=&quot;left&quot; style=&quot;border: 1px solid #b85450&quot;&gt;Description&lt;/th&gt;&lt;/tr&gt;&lt;tr&gt;&lt;td style=&quot;border: 1px solid #b85450&quot;&gt;TA01&lt;/td&gt;&lt;td style=&quot;border: 1px solid #b85450&quot;&gt;External attacker.&lt;/td&gt;&lt;/tr&gt;&lt;tr&gt;&lt;td&gt;TA02&lt;/td&gt;&lt;td&gt;Internal attacker.&lt;/td&gt;&lt;/tr&gt;&lt;/tbody&gt;&lt;/table&gt;" style="text;html=1;strokeColor=#c0c0c0;fillColor=#ffffff;overflow=fill;rounded=0;shadow=1;labelBackgroundColor=#ffffff;fontColor=#000000;align=left;" parent="SFg6QM7ZS3-27cRyY0Mg-40" vertex="1">
          <mxGeometry x="-1000" y="-240" width="480" height="140" as="geometry" />
        </mxCell>
        <mxCell id="SFg6QM7ZS3-27cRyY0Mg-46" value="TA01" style="text;html=1;strokeColor=#b85450;fillColor=#f8cecc;align=center;verticalAlign=middle;whiteSpace=wrap;overflow=hidden;" parent="SFg6QM7ZS3-27cRyY0Mg-40" vertex="1">
          <mxGeometry x="30" y="320" width="80" height="40" as="geometry" />
        </mxCell>
        <mxCell id="9i3J6mn8uBdhyOnGni23-22" value="TA02" style="text;html=1;strokeColor=#b85450;fillColor=#f8cecc;align=center;verticalAlign=middle;whiteSpace=wrap;overflow=hidden;" parent="SFg6QM7ZS3-27cRyY0Mg-40" vertex="1">
          <mxGeometry x="1720" y="400" width="80" height="40" as="geometry" />
        </mxCell>
        <mxCell id="SFg6QM7ZS3-27cRyY0Mg-48" value="Attack Vectors" style="" parent="0" />
        <mxCell id="SFg6QM7ZS3-27cRyY0Mg-49" value="&lt;table border=&quot;1&quot; width=&quot;100%&quot; style=&quot;width: 100% ; height: 100% ; border-collapse: collapse ; border: 1px solid #b85450&quot;&gt;&lt;tbody&gt;&lt;tr style=&quot;background-color: #f8cecc ; color: #000000 ; border: 1px solid #b85450&quot;&gt;&lt;th align=&quot;center&quot; colspan=&quot;2&quot;&gt;Attack Vectors (AV)&lt;/th&gt;&lt;/tr&gt;&lt;tr style=&quot;background-color: #f8cecc ; color: #000000 ; border: 1px solid #b85450&quot;&gt;&lt;th align=&quot;left&quot; style=&quot;border: 1px solid #b85450&quot;&gt;ID&lt;/th&gt;&lt;th align=&quot;left&quot; style=&quot;border: 1px solid #b85450&quot;&gt;Description&lt;/th&gt;&lt;/tr&gt;&lt;tr&gt;&lt;td style=&quot;border: 1px solid #b85450&quot;&gt;AV01&lt;/td&gt;&lt;td style=&quot;border: 1px solid #b85450&quot;&gt;Publicly exposed host with vulnerable non-K8s endpoint(s)/service(s)/port(s).&lt;/td&gt;&lt;/tr&gt;&lt;tr&gt;&lt;td&gt;AV02&lt;/td&gt;&lt;td&gt;Compromised kubeconfig file.&lt;/td&gt;&lt;/tr&gt;&lt;tr&gt;&lt;td&gt;AV03&lt;/td&gt;&lt;td&gt;Compromised K8s service account token with cluster details.&lt;/td&gt;&lt;/tr&gt;&lt;tr&gt;&lt;td&gt;AV04&lt;/td&gt;&lt;td&gt;Malicious container image in public registry.&lt;/td&gt;&lt;/tr&gt;&lt;tr&gt;&lt;td&gt;AV05&lt;/td&gt;&lt;td&gt;Publicly exposed vulnerable K8s workload: e.g. RCE.&lt;/td&gt;&lt;/tr&gt;&lt;tr&gt;&lt;td&gt;AV06&lt;/td&gt;&lt;td&gt;Malicious 3rd party dependency.&lt;/td&gt;&lt;/tr&gt;&lt;tr&gt;&lt;td&gt;AV07&lt;/td&gt;&lt;td&gt;kube-apiserver vulnerability.&lt;/td&gt;&lt;/tr&gt;&lt;tr&gt;&lt;td&gt;AV08&lt;/td&gt;&lt;td&gt;kube-apiserver&#39;s options configured incorrectly.&lt;/td&gt;&lt;/tr&gt;&lt;tr&gt;&lt;td&gt;AV09&lt;/td&gt;&lt;td&gt;kube-apiserver&#39;s authorization configured incorrectly.&lt;/td&gt;&lt;/tr&gt;&lt;tr&gt;&lt;td&gt;AV10&lt;/td&gt;&lt;td&gt;etcd&#39;s authentication configured incorrectly.&lt;/td&gt;&lt;/tr&gt;&lt;tr&gt;&lt;td&gt;AV11&lt;/td&gt;&lt;td&gt;Compromised credentials of publicly exposed host.&lt;/td&gt;&lt;/tr&gt;&lt;tr&gt;&lt;td&gt;AV12&lt;/td&gt;&lt;td&gt;Container runtime configured incorrectly.&lt;/td&gt;&lt;/tr&gt;&lt;tr&gt;&lt;td&gt;AV13&lt;/td&gt;&lt;td&gt;Compromised OIDC token with cluster details.&lt;/td&gt;&lt;/tr&gt;&lt;tr&gt;&lt;td&gt;AV14&lt;/td&gt;&lt;td&gt;Host with vulnerable non-K8s endpoint(s)/service(s)/port(s).&lt;/td&gt;&lt;/tr&gt;&lt;tr&gt;&lt;td&gt;AV15&lt;/td&gt;&lt;td&gt;Legitimately obtained kubeconfig file.&lt;/td&gt;&lt;/tr&gt;&lt;tr&gt;&lt;td&gt;AV16&lt;/td&gt;&lt;td&gt;Legitimately obtained K8s service account token with cluster details.&lt;/td&gt;&lt;/tr&gt;&lt;tr&gt;&lt;td&gt;AV17&lt;/td&gt;&lt;td&gt;Malicious container image in private registry.&lt;/td&gt;&lt;/tr&gt;&lt;tr&gt;&lt;td&gt;AV18&lt;/td&gt;&lt;td&gt;Vulnerable K8s workload: e.g. RCE.&lt;/td&gt;&lt;/tr&gt;&lt;tr&gt;&lt;td&gt;AV19&lt;/td&gt;&lt;td&gt;kubelet vulnerability.&lt;/td&gt;&lt;/tr&gt;&lt;tr&gt;&lt;td&gt;AV20&lt;/td&gt;&lt;td&gt;kubelet&#39;s options configured incorrectly.&lt;/td&gt;&lt;/tr&gt;&lt;tr&gt;&lt;td&gt;AV21&lt;/td&gt;&lt;td&gt;Compromised credentials of host.&lt;/td&gt;&lt;/tr&gt;&lt;tr&gt;&lt;td&gt;AV22&lt;/td&gt;&lt;td&gt;Legitimately obtained OIDC token with cluster details.&lt;/td&gt;&lt;/tr&gt;&lt;tr&gt;&lt;td&gt;AV22&lt;/td&gt;&lt;td&gt;Legitimately obtained credentials of host.&lt;/td&gt;&lt;/tr&gt;&lt;/tbody&gt;&lt;/table&gt;" style="text;html=1;strokeColor=#c0c0c0;fillColor=#ffffff;overflow=fill;rounded=0;shadow=1;labelBackgroundColor=#ffffff;fontColor=#000000;align=left;" parent="SFg6QM7ZS3-27cRyY0Mg-48" vertex="1">
          <mxGeometry x="-480" y="-240" width="440" height="480" as="geometry" />
        </mxCell>
        <mxCell id="MrJL4Cl_HdAFYrtcQk6u-3" value="AV01" style="text;html=1;strokeColor=#b85450;fillColor=#f8cecc;align=center;verticalAlign=middle;whiteSpace=wrap;overflow=hidden;" parent="SFg6QM7ZS3-27cRyY0Mg-48" vertex="1">
          <mxGeometry x="170" y="190" width="40" height="20" as="geometry" />
        </mxCell>
        <mxCell id="MrJL4Cl_HdAFYrtcQk6u-4" value="AV02" style="text;html=1;strokeColor=#b85450;fillColor=#f8cecc;align=center;verticalAlign=middle;whiteSpace=wrap;overflow=hidden;" parent="SFg6QM7ZS3-27cRyY0Mg-48" vertex="1">
          <mxGeometry x="170" y="280" width="40" height="20" as="geometry" />
        </mxCell>
        <mxCell id="MrJL4Cl_HdAFYrtcQk6u-5" value="AV03" style="text;html=1;strokeColor=#b85450;fillColor=#f8cecc;align=center;verticalAlign=middle;whiteSpace=wrap;overflow=hidden;" parent="SFg6QM7ZS3-27cRyY0Mg-48" vertex="1">
          <mxGeometry x="170" y="300" width="40" height="20" as="geometry" />
        </mxCell>
        <mxCell id="MrJL4Cl_HdAFYrtcQk6u-42" value="AV04" style="text;html=1;strokeColor=#b85450;fillColor=#f8cecc;align=center;verticalAlign=middle;whiteSpace=wrap;overflow=hidden;" parent="SFg6QM7ZS3-27cRyY0Mg-48" vertex="1">
          <mxGeometry x="170" y="605" width="40" height="20" as="geometry" />
        </mxCell>
        <mxCell id="MrJL4Cl_HdAFYrtcQk6u-43" value="AV06" style="text;html=1;strokeColor=#b85450;fillColor=#f8cecc;align=center;verticalAlign=middle;whiteSpace=wrap;overflow=hidden;" parent="SFg6QM7ZS3-27cRyY0Mg-48" vertex="1">
          <mxGeometry x="170" y="520" width="40" height="20" as="geometry" />
        </mxCell>
        <mxCell id="MrJL4Cl_HdAFYrtcQk6u-60" value="AV05" style="text;html=1;strokeColor=#b85450;fillColor=#f8cecc;align=center;verticalAlign=middle;whiteSpace=wrap;overflow=hidden;" parent="SFg6QM7ZS3-27cRyY0Mg-48" vertex="1">
          <mxGeometry x="170" y="430" width="40" height="20" as="geometry" />
        </mxCell>
        <mxCell id="ec_nTFersLw2R51HPFCD-66" value="AV07" style="text;html=1;strokeColor=#b85450;fillColor=#f8cecc;align=center;verticalAlign=middle;whiteSpace=wrap;overflow=hidden;" parent="SFg6QM7ZS3-27cRyY0Mg-48" vertex="1">
          <mxGeometry x="170" y="320" width="40" height="20" as="geometry" />
        </mxCell>
        <mxCell id="ec_nTFersLw2R51HPFCD-71" value="AV08" style="text;html=1;strokeColor=#b85450;fillColor=#f8cecc;align=center;verticalAlign=middle;whiteSpace=wrap;overflow=hidden;" parent="SFg6QM7ZS3-27cRyY0Mg-48" vertex="1">
          <mxGeometry x="170" y="340" width="40" height="20" as="geometry" />
        </mxCell>
        <mxCell id="ec_nTFersLw2R51HPFCD-72" value="AV09" style="text;html=1;strokeColor=#b85450;fillColor=#f8cecc;align=center;verticalAlign=middle;whiteSpace=wrap;overflow=hidden;" parent="SFg6QM7ZS3-27cRyY0Mg-48" vertex="1">
          <mxGeometry x="170" y="360" width="40" height="20" as="geometry" />
        </mxCell>
        <mxCell id="9i3J6mn8uBdhyOnGni23-2" value="AV10" style="text;html=1;strokeColor=#b85450;fillColor=#f8cecc;align=center;verticalAlign=middle;whiteSpace=wrap;overflow=hidden;" parent="SFg6QM7ZS3-27cRyY0Mg-48" vertex="1">
          <mxGeometry x="170" y="230" width="40" height="20" as="geometry" />
        </mxCell>
        <mxCell id="9i3J6mn8uBdhyOnGni23-5" value="AV11" style="text;html=1;strokeColor=#b85450;fillColor=#f8cecc;align=center;verticalAlign=middle;whiteSpace=wrap;overflow=hidden;" parent="SFg6QM7ZS3-27cRyY0Mg-48" vertex="1">
          <mxGeometry x="170" y="170" width="40" height="20" as="geometry" />
        </mxCell>
        <mxCell id="9i3J6mn8uBdhyOnGni23-12" value="AV12" style="text;html=1;strokeColor=#b85450;fillColor=#f8cecc;align=center;verticalAlign=middle;whiteSpace=wrap;overflow=hidden;" parent="SFg6QM7ZS3-27cRyY0Mg-48" vertex="1">
          <mxGeometry x="170" y="470" width="40" height="20" as="geometry" />
        </mxCell>
        <mxCell id="9i3J6mn8uBdhyOnGni23-15" value="AV13" style="text;html=1;strokeColor=#b85450;fillColor=#f8cecc;align=center;verticalAlign=middle;whiteSpace=wrap;overflow=hidden;" parent="SFg6QM7ZS3-27cRyY0Mg-48" vertex="1">
          <mxGeometry x="170" y="380" width="40" height="20" as="geometry" />
        </mxCell>
        <mxCell id="9i3J6mn8uBdhyOnGni23-23" value="AV14" style="text;html=1;strokeColor=#b85450;fillColor=#f8cecc;align=center;verticalAlign=middle;whiteSpace=wrap;overflow=hidden;" parent="SFg6QM7ZS3-27cRyY0Mg-48" vertex="1">
          <mxGeometry x="1614" y="80" width="40" height="20" as="geometry" />
        </mxCell>
        <mxCell id="9i3J6mn8uBdhyOnGni23-29" value="AV02" style="text;html=1;strokeColor=#b85450;fillColor=#f8cecc;align=center;verticalAlign=middle;whiteSpace=wrap;overflow=hidden;" parent="SFg6QM7ZS3-27cRyY0Mg-48" vertex="1">
          <mxGeometry x="1574" y="180" width="40" height="20" as="geometry" />
        </mxCell>
        <mxCell id="9i3J6mn8uBdhyOnGni23-30" value="AV03" style="text;html=1;strokeColor=#b85450;fillColor=#f8cecc;align=center;verticalAlign=middle;whiteSpace=wrap;overflow=hidden;" parent="SFg6QM7ZS3-27cRyY0Mg-48" vertex="1">
          <mxGeometry x="1614" y="180" width="40" height="20" as="geometry" />
        </mxCell>
        <mxCell id="9i3J6mn8uBdhyOnGni23-31" value="AV15" style="text;html=1;strokeColor=#b85450;fillColor=#f8cecc;align=center;verticalAlign=middle;whiteSpace=wrap;overflow=hidden;" parent="SFg6QM7ZS3-27cRyY0Mg-48" vertex="1">
          <mxGeometry x="1574" y="200" width="40" height="20" as="geometry" />
        </mxCell>
        <mxCell id="9i3J6mn8uBdhyOnGni23-32" value="AV16" style="text;html=1;strokeColor=#b85450;fillColor=#f8cecc;align=center;verticalAlign=middle;whiteSpace=wrap;overflow=hidden;" parent="SFg6QM7ZS3-27cRyY0Mg-48" vertex="1">
          <mxGeometry x="1614" y="200" width="40" height="20" as="geometry" />
        </mxCell>
        <mxCell id="9i3J6mn8uBdhyOnGni23-37" value="AV21" style="text;html=1;strokeColor=#b85450;fillColor=#f8cecc;align=center;verticalAlign=middle;whiteSpace=wrap;overflow=hidden;" parent="SFg6QM7ZS3-27cRyY0Mg-48" vertex="1">
          <mxGeometry x="1614" y="60" width="40" height="20" as="geometry" />
        </mxCell>
        <mxCell id="9i3J6mn8uBdhyOnGni23-38" value="AV22" style="text;html=1;strokeColor=#b85450;fillColor=#f8cecc;align=center;verticalAlign=middle;whiteSpace=wrap;overflow=hidden;" parent="SFg6QM7ZS3-27cRyY0Mg-48" vertex="1">
          <mxGeometry x="1614" y="100" width="40" height="20" as="geometry" />
        </mxCell>
        <mxCell id="9i3J6mn8uBdhyOnGni23-39" value="AV07" style="text;html=1;strokeColor=#b85450;fillColor=#f8cecc;align=center;verticalAlign=middle;whiteSpace=wrap;overflow=hidden;" parent="SFg6QM7ZS3-27cRyY0Mg-48" vertex="1">
          <mxGeometry x="1574" y="220" width="40" height="20" as="geometry" />
        </mxCell>
        <mxCell id="9i3J6mn8uBdhyOnGni23-40" value="AV08" style="text;html=1;strokeColor=#b85450;fillColor=#f8cecc;align=center;verticalAlign=middle;whiteSpace=wrap;overflow=hidden;" parent="SFg6QM7ZS3-27cRyY0Mg-48" vertex="1">
          <mxGeometry x="1614" y="220" width="40" height="20" as="geometry" />
        </mxCell>
        <mxCell id="9i3J6mn8uBdhyOnGni23-41" value="AV09" style="text;html=1;strokeColor=#b85450;fillColor=#f8cecc;align=center;verticalAlign=middle;whiteSpace=wrap;overflow=hidden;" parent="SFg6QM7ZS3-27cRyY0Mg-48" vertex="1">
          <mxGeometry x="1574" y="240" width="40" height="20" as="geometry" />
        </mxCell>
        <mxCell id="9i3J6mn8uBdhyOnGni23-42" value="AV22" style="text;html=1;strokeColor=#b85450;fillColor=#f8cecc;align=center;verticalAlign=middle;whiteSpace=wrap;overflow=hidden;" parent="SFg6QM7ZS3-27cRyY0Mg-48" vertex="1">
          <mxGeometry x="1614" y="240" width="40" height="20" as="geometry" />
        </mxCell>
        <mxCell id="9i3J6mn8uBdhyOnGni23-45" value="AV19" style="text;html=1;strokeColor=#b85450;fillColor=#f8cecc;align=center;verticalAlign=middle;whiteSpace=wrap;overflow=hidden;" parent="SFg6QM7ZS3-27cRyY0Mg-48" vertex="1">
          <mxGeometry x="1614" y="400" width="40" height="20" as="geometry" />
        </mxCell>
        <mxCell id="9i3J6mn8uBdhyOnGni23-46" value="AV20" style="text;html=1;strokeColor=#b85450;fillColor=#f8cecc;align=center;verticalAlign=middle;whiteSpace=wrap;overflow=hidden;" parent="SFg6QM7ZS3-27cRyY0Mg-48" vertex="1">
          <mxGeometry x="1614" y="420" width="40" height="20" as="geometry" />
        </mxCell>
        <mxCell id="9i3J6mn8uBdhyOnGni23-49" value="AV17" style="text;html=1;strokeColor=#b85450;fillColor=#f8cecc;align=center;verticalAlign=middle;whiteSpace=wrap;overflow=hidden;" parent="SFg6QM7ZS3-27cRyY0Mg-48" vertex="1">
          <mxGeometry x="1614" y="585" width="40" height="20" as="geometry" />
        </mxCell>
        <mxCell id="9i3J6mn8uBdhyOnGni23-54" value="AV18" style="text;html=1;strokeColor=#b85450;fillColor=#f8cecc;align=center;verticalAlign=middle;whiteSpace=wrap;overflow=hidden;" parent="SFg6QM7ZS3-27cRyY0Mg-48" vertex="1">
          <mxGeometry x="1614" y="500" width="40" height="20" as="geometry" />
        </mxCell>
        <mxCell id="9i3J6mn8uBdhyOnGni23-55" value="AV06" style="text;html=1;strokeColor=#b85450;fillColor=#f8cecc;align=center;verticalAlign=middle;whiteSpace=wrap;overflow=hidden;" parent="SFg6QM7ZS3-27cRyY0Mg-48" vertex="1">
          <mxGeometry x="1614" y="565" width="40" height="20" as="geometry" />
        </mxCell>
        <mxCell id="9i3J6mn8uBdhyOnGni23-56" value="AV10" style="text;html=1;strokeColor=#b85450;fillColor=#f8cecc;align=center;verticalAlign=middle;whiteSpace=wrap;overflow=hidden;" parent="SFg6QM7ZS3-27cRyY0Mg-48" vertex="1">
          <mxGeometry x="1614" y="-5" width="40" height="20" as="geometry" />
        </mxCell>
        <mxCell id="MrJL4Cl_HdAFYrtcQk6u-12" value="Attack Path" style="" parent="0" />
        <mxCell id="9i3J6mn8uBdhyOnGni23-62" value="" style="endArrow=none;html=1;strokeColor=#B85450;strokeWidth=2;entryX=0;entryY=0.5;entryDx=0;entryDy=0;exitX=1;exitY=1;exitDx=0;exitDy=0;jumpStyle=arc;" parent="MrJL4Cl_HdAFYrtcQk6u-12" source="9i3J6mn8uBdhyOnGni23-55" target="9i3J6mn8uBdhyOnGni23-22" edge="1">
          <mxGeometry width="50" height="50" relative="1" as="geometry">
            <mxPoint x="1770" y="130" as="sourcePoint" />
            <mxPoint x="1820" y="80" as="targetPoint" />
            <Array as="points">
              <mxPoint x="1690" y="585" />
              <mxPoint x="1690" y="420" />
            </Array>
          </mxGeometry>
        </mxCell>
        <mxCell id="9i3J6mn8uBdhyOnGni23-57" value="" style="endArrow=none;html=1;strokeColor=#B85450;strokeWidth=2;exitX=1;exitY=0.5;exitDx=0;exitDy=0;jumpStyle=arc;entryX=0;entryY=0.5;entryDx=0;entryDy=0;" parent="MrJL4Cl_HdAFYrtcQk6u-12" source="9i3J6mn8uBdhyOnGni23-54" target="9i3J6mn8uBdhyOnGni23-22" edge="1">
          <mxGeometry width="50" height="50" relative="1" as="geometry">
            <mxPoint x="1530" y="430" as="sourcePoint" />
            <mxPoint x="1700" y="470" as="targetPoint" />
            <Array as="points">
              <mxPoint x="1690" y="510" />
              <mxPoint x="1690" y="420" />
            </Array>
          </mxGeometry>
        </mxCell>
        <mxCell id="9i3J6mn8uBdhyOnGni23-47" value="" style="endArrow=none;html=1;strokeColor=#B85450;strokeWidth=2;exitX=1;exitY=1;exitDx=0;exitDy=0;entryX=0;entryY=0.5;entryDx=0;entryDy=0;jumpStyle=arc;" parent="MrJL4Cl_HdAFYrtcQk6u-12" source="9i3J6mn8uBdhyOnGni23-45" target="9i3J6mn8uBdhyOnGni23-22" edge="1">
          <mxGeometry width="50" height="50" relative="1" as="geometry">
            <mxPoint x="1670" y="80" as="sourcePoint" />
            <mxPoint x="1710" y="470" as="targetPoint" />
            <Array as="points" />
          </mxGeometry>
        </mxCell>
        <mxCell id="9i3J6mn8uBdhyOnGni23-43" value="" style="endArrow=none;html=1;strokeColor=#B85450;strokeWidth=2;entryX=0;entryY=0.5;entryDx=0;entryDy=0;exitX=1;exitY=1;exitDx=0;exitDy=0;jumpStyle=arc;" parent="MrJL4Cl_HdAFYrtcQk6u-12" source="9i3J6mn8uBdhyOnGni23-32" target="9i3J6mn8uBdhyOnGni23-22" edge="1">
          <mxGeometry width="50" height="50" relative="1" as="geometry">
            <mxPoint x="1630" y="90" as="sourcePoint" />
            <mxPoint x="1680" y="40" as="targetPoint" />
            <Array as="points">
              <mxPoint x="1690" y="220" />
              <mxPoint x="1690" y="420" />
            </Array>
          </mxGeometry>
        </mxCell>
        <mxCell id="9i3J6mn8uBdhyOnGni23-24" value="" style="endArrow=none;html=1;strokeColor=#B85450;strokeWidth=2;entryX=0;entryY=0.5;entryDx=0;entryDy=0;exitX=1;exitY=0.5;exitDx=0;exitDy=0;jumpStyle=arc;" parent="MrJL4Cl_HdAFYrtcQk6u-12" source="9i3J6mn8uBdhyOnGni23-23" target="9i3J6mn8uBdhyOnGni23-22" edge="1">
          <mxGeometry width="50" height="50" relative="1" as="geometry">
            <mxPoint x="1510" y="-260" as="sourcePoint" />
            <mxPoint x="1560" y="-310" as="targetPoint" />
            <Array as="points">
              <mxPoint x="1690" y="90" />
              <mxPoint x="1690" y="420" />
            </Array>
          </mxGeometry>
        </mxCell>
        <mxCell id="9i3J6mn8uBdhyOnGni23-59" value="" style="endArrow=none;html=1;strokeColor=#B85450;strokeWidth=2;entryX=0;entryY=0.5;entryDx=0;entryDy=0;exitX=1;exitY=0.5;exitDx=0;exitDy=0;jumpStyle=arc;" parent="MrJL4Cl_HdAFYrtcQk6u-12" source="9i3J6mn8uBdhyOnGni23-56" target="9i3J6mn8uBdhyOnGni23-22" edge="1">
          <mxGeometry width="50" height="50" relative="1" as="geometry">
            <mxPoint x="1580" y="-310" as="sourcePoint" />
            <mxPoint x="1630" y="-360" as="targetPoint" />
            <Array as="points">
              <mxPoint x="1690" y="5" />
              <mxPoint x="1690" y="420" />
            </Array>
          </mxGeometry>
        </mxCell>
        <mxCell id="MrJL4Cl_HdAFYrtcQk6u-44" value="" style="endArrow=none;html=1;strokeWidth=2;entryX=1;entryY=0.5;entryDx=0;entryDy=0;strokeColor=#B85450;jumpStyle=arc;" parent="MrJL4Cl_HdAFYrtcQk6u-12" target="SFg6QM7ZS3-27cRyY0Mg-46" edge="1">
          <mxGeometry width="50" height="50" relative="1" as="geometry">
            <mxPoint x="170" y="615" as="sourcePoint" />
            <mxPoint x="-40" y="300" as="targetPoint" />
            <Array as="points">
              <mxPoint x="140" y="615" />
              <mxPoint x="140" y="340" />
            </Array>
          </mxGeometry>
        </mxCell>
        <mxCell id="MrJL4Cl_HdAFYrtcQk6u-47" value="" style="endArrow=none;html=1;strokeWidth=2;entryX=1;entryY=0.5;entryDx=0;entryDy=0;exitX=0;exitY=0.5;exitDx=0;exitDy=0;strokeColor=#B85450;jumpStyle=arc;" parent="MrJL4Cl_HdAFYrtcQk6u-12" source="MrJL4Cl_HdAFYrtcQk6u-43" target="SFg6QM7ZS3-27cRyY0Mg-46" edge="1">
          <mxGeometry width="50" height="50" relative="1" as="geometry">
            <mxPoint x="120" y="670" as="sourcePoint" />
            <mxPoint x="170" y="620" as="targetPoint" />
            <Array as="points">
              <mxPoint x="140" y="530" />
              <mxPoint x="140" y="340" />
            </Array>
          </mxGeometry>
        </mxCell>
        <mxCell id="9i3J6mn8uBdhyOnGni23-19" value="" style="endArrow=none;html=1;strokeColor=#B85450;strokeWidth=2;exitX=1;exitY=0.5;exitDx=0;exitDy=0;entryX=0;entryY=0.5;entryDx=0;entryDy=0;jumpStyle=arc;" parent="MrJL4Cl_HdAFYrtcQk6u-12" source="SFg6QM7ZS3-27cRyY0Mg-46" target="9i3J6mn8uBdhyOnGni23-12" edge="1">
          <mxGeometry width="50" height="50" relative="1" as="geometry">
            <mxPoint x="100" y="780" as="sourcePoint" />
            <mxPoint x="150" y="730" as="targetPoint" />
            <Array as="points">
              <mxPoint x="140" y="340" />
              <mxPoint x="140" y="440" />
              <mxPoint x="140" y="480" />
            </Array>
          </mxGeometry>
        </mxCell>
        <mxCell id="MrJL4Cl_HdAFYrtcQk6u-61" value="" style="endArrow=none;html=1;strokeWidth=2;entryX=1;entryY=0.5;entryDx=0;entryDy=0;exitX=0;exitY=0.5;exitDx=0;exitDy=0;strokeColor=#B85450;jumpStyle=arc;" parent="MrJL4Cl_HdAFYrtcQk6u-12" source="MrJL4Cl_HdAFYrtcQk6u-60" target="SFg6QM7ZS3-27cRyY0Mg-46" edge="1">
          <mxGeometry width="50" height="50" relative="1" as="geometry">
            <mxPoint x="120" y="690" as="sourcePoint" />
            <mxPoint x="170" y="640" as="targetPoint" />
            <Array as="points">
              <mxPoint x="140" y="440" />
              <mxPoint x="140" y="430" />
              <mxPoint x="140" y="340" />
            </Array>
          </mxGeometry>
        </mxCell>
        <mxCell id="MrJL4Cl_HdAFYrtcQk6u-19" value="" style="endArrow=none;html=1;strokeWidth=2;exitX=1;exitY=0.5;exitDx=0;exitDy=0;entryX=0;entryY=0;entryDx=0;entryDy=0;fillColor=#f8cecc;strokeColor=#b85450;jumpStyle=arc;" parent="MrJL4Cl_HdAFYrtcQk6u-12" source="SFg6QM7ZS3-27cRyY0Mg-46" target="ec_nTFersLw2R51HPFCD-71" edge="1">
          <mxGeometry width="50" height="50" relative="1" as="geometry">
            <mxPoint x="90" y="190" as="sourcePoint" />
            <mxPoint x="140" y="140" as="targetPoint" />
            <Array as="points" />
          </mxGeometry>
        </mxCell>
        <mxCell id="MrJL4Cl_HdAFYrtcQk6u-13" value="" style="endArrow=none;html=1;strokeWidth=2;exitX=0;exitY=0.5;exitDx=0;exitDy=0;entryX=1;entryY=0.5;entryDx=0;entryDy=0;strokeColor=#b85450;fillColor=#f8cecc;rounded=1;jumpStyle=arc;" parent="MrJL4Cl_HdAFYrtcQk6u-12" source="9i3J6mn8uBdhyOnGni23-2" target="SFg6QM7ZS3-27cRyY0Mg-46" edge="1">
          <mxGeometry width="50" height="50" relative="1" as="geometry">
            <mxPoint x="90" y="120" as="sourcePoint" />
            <mxPoint x="40" y="170" as="targetPoint" />
            <Array as="points">
              <mxPoint x="140" y="240" />
              <mxPoint x="140" y="340" />
            </Array>
          </mxGeometry>
        </mxCell>
        <mxCell id="9i3J6mn8uBdhyOnGni23-3" value="" style="endArrow=none;html=1;exitX=1;exitY=0.5;exitDx=0;exitDy=0;entryX=0;entryY=1;entryDx=0;entryDy=0;strokeColor=#B85450;strokeWidth=2;jumpStyle=arc;" parent="MrJL4Cl_HdAFYrtcQk6u-12" source="SFg6QM7ZS3-27cRyY0Mg-46" target="9i3J6mn8uBdhyOnGni23-5" edge="1">
          <mxGeometry width="50" height="50" relative="1" as="geometry">
            <mxPoint x="-20" y="130" as="sourcePoint" />
            <mxPoint x="30" y="80" as="targetPoint" />
            <Array as="points">
              <mxPoint x="140" y="340" />
              <mxPoint x="140" y="190" />
            </Array>
          </mxGeometry>
        </mxCell>
        <mxCell id="MrJL4Cl_HdAFYrtcQk6u-45" value="" style="endArrow=none;html=1;strokeWidth=2;entryX=0;entryY=0.5;entryDx=0;entryDy=0;strokeColor=#B85450;jumpStyle=arc;exitX=1;exitY=0.5;exitDx=0;exitDy=0;" parent="MrJL4Cl_HdAFYrtcQk6u-12" source="MrJL4Cl_HdAFYrtcQk6u-42" target="MrJL4Cl_HdAFYrtcQk6u-40" edge="1">
          <mxGeometry width="50" height="50" relative="1" as="geometry">
            <mxPoint x="210" y="610" as="sourcePoint" />
            <mxPoint x="-30" y="300" as="targetPoint" />
          </mxGeometry>
        </mxCell>
        <mxCell id="MrJL4Cl_HdAFYrtcQk6u-48" value="" style="endArrow=none;html=1;strokeWidth=2;entryX=1;entryY=0.5;entryDx=0;entryDy=0;exitX=0;exitY=0.5;exitDx=0;exitDy=0;strokeColor=#B85450;jumpStyle=arc;" parent="MrJL4Cl_HdAFYrtcQk6u-12" source="MrJL4Cl_HdAFYrtcQk6u-41" target="MrJL4Cl_HdAFYrtcQk6u-43" edge="1">
          <mxGeometry width="50" height="50" relative="1" as="geometry">
            <mxPoint x="140" y="680" as="sourcePoint" />
            <mxPoint x="190" y="630" as="targetPoint" />
          </mxGeometry>
        </mxCell>
        <mxCell id="9i3J6mn8uBdhyOnGni23-66" value="" style="endArrow=none;html=1;strokeColor=#B85450;strokeWidth=2;exitX=0;exitY=0;exitDx=0;exitDy=0;entryX=1;entryY=0.5;entryDx=0;entryDy=0;" parent="MrJL4Cl_HdAFYrtcQk6u-12" source="9i3J6mn8uBdhyOnGni23-49" target="9i3J6mn8uBdhyOnGni23-64" edge="1">
          <mxGeometry width="50" height="50" relative="1" as="geometry">
            <mxPoint x="1820" y="30" as="sourcePoint" />
            <mxPoint x="1870" y="-20" as="targetPoint" />
          </mxGeometry>
        </mxCell>
        <mxCell id="lq49TgYs11oCLogU7XhR-1" value="" style="endArrow=classic;html=1;exitX=1;exitY=0;exitDx=0;exitDy=0;entryX=0;entryY=0.5;entryDx=0;entryDy=0;strokeColor=#B85450;jumpStyle=arc;strokeWidth=2;" parent="MrJL4Cl_HdAFYrtcQk6u-12" source="MrJL4Cl_HdAFYrtcQk6u-3" target="gC-9RXFtl5AX3G4jlq2e-28" edge="1">
          <mxGeometry width="50" height="50" relative="1" as="geometry">
            <mxPoint x="230" y="30" as="sourcePoint" />
            <mxPoint x="280" y="-20" as="targetPoint" />
            <Array as="points">
              <mxPoint x="520" y="190" />
              <mxPoint x="520" y="-130" />
            </Array>
          </mxGeometry>
        </mxCell>
        <mxCell id="lq49TgYs11oCLogU7XhR-2" value="" style="endArrow=classic;html=1;strokeColor=#B85450;strokeWidth=2;exitX=1;exitY=0;exitDx=0;exitDy=0;entryX=0;entryY=0.25;entryDx=0;entryDy=0;jumpStyle=arc;" parent="MrJL4Cl_HdAFYrtcQk6u-12" source="MrJL4Cl_HdAFYrtcQk6u-3" target="gC-9RXFtl5AX3G4jlq2e-31" edge="1">
          <mxGeometry width="50" height="50" relative="1" as="geometry">
            <mxPoint x="220" y="-50" as="sourcePoint" />
            <mxPoint x="270" y="-100" as="targetPoint" />
            <Array as="points">
              <mxPoint x="520" y="190" />
              <mxPoint x="520" y="133" />
            </Array>
          </mxGeometry>
        </mxCell>
        <mxCell id="lq49TgYs11oCLogU7XhR-3" value="" style="endArrow=classic;html=1;strokeColor=#B85450;strokeWidth=2;exitX=1;exitY=1;exitDx=0;exitDy=0;entryX=0;entryY=0;entryDx=0;entryDy=0;jumpStyle=arc;" parent="MrJL4Cl_HdAFYrtcQk6u-12" source="9i3J6mn8uBdhyOnGni23-5" target="gC-9RXFtl5AX3G4jlq2e-24" edge="1">
          <mxGeometry width="50" height="50" relative="1" as="geometry">
            <mxPoint x="220" y="10" as="sourcePoint" />
            <mxPoint x="270" y="-40" as="targetPoint" />
            <Array as="points">
              <mxPoint x="520" y="190" />
              <mxPoint x="520" y="650" />
            </Array>
          </mxGeometry>
        </mxCell>
        <mxCell id="lq49TgYs11oCLogU7XhR-4" value="" style="endArrow=classic;html=1;strokeColor=#B85450;strokeWidth=2;exitX=1;exitY=0.5;exitDx=0;exitDy=0;entryX=0;entryY=0.5;entryDx=0;entryDy=0;jumpStyle=arc;" parent="MrJL4Cl_HdAFYrtcQk6u-12" source="9i3J6mn8uBdhyOnGni23-2" target="gC-9RXFtl5AX3G4jlq2e-15" edge="1">
          <mxGeometry width="50" height="50" relative="1" as="geometry">
            <mxPoint x="250" y="30" as="sourcePoint" />
            <mxPoint x="300" y="-20" as="targetPoint" />
            <Array as="points">
              <mxPoint x="530" y="240" />
              <mxPoint x="530" y="-155" />
            </Array>
          </mxGeometry>
        </mxCell>
        <mxCell id="lq49TgYs11oCLogU7XhR-6" value="" style="endArrow=classic;html=1;strokeColor=#B85450;strokeWidth=2;exitX=1;exitY=0;exitDx=0;exitDy=0;entryX=0;entryY=0;entryDx=0;entryDy=0;jumpStyle=arc;" parent="MrJL4Cl_HdAFYrtcQk6u-12" source="ec_nTFersLw2R51HPFCD-71" target="gC-9RXFtl5AX3G4jlq2e-19" edge="1">
          <mxGeometry width="50" height="50" relative="1" as="geometry">
            <mxPoint x="280" y="10" as="sourcePoint" />
            <mxPoint x="330" y="-40" as="targetPoint" />
            <Array as="points">
              <mxPoint x="540" y="340" />
              <mxPoint x="540" y="-10" />
              <mxPoint x="910" y="-10" />
              <mxPoint x="910" y="60" />
              <mxPoint x="992" y="60" />
            </Array>
          </mxGeometry>
        </mxCell>
        <mxCell id="lq49TgYs11oCLogU7XhR-7" value="" style="endArrow=classic;html=1;strokeColor=#B85450;strokeWidth=2;entryX=0;entryY=1;entryDx=0;entryDy=0;jumpStyle=arc;" parent="MrJL4Cl_HdAFYrtcQk6u-12" target="MrJL4Cl_HdAFYrtcQk6u-53" edge="1">
          <mxGeometry width="50" height="50" relative="1" as="geometry">
            <mxPoint x="210" y="440" as="sourcePoint" />
            <mxPoint x="340" y="-50" as="targetPoint" />
            <Array as="points">
              <mxPoint x="500" y="440" />
              <mxPoint x="500" y="1078" />
            </Array>
          </mxGeometry>
        </mxCell>
        <mxCell id="lq49TgYs11oCLogU7XhR-8" value="" style="endArrow=classic;html=1;strokeColor=#B85450;strokeWidth=2;entryX=0;entryY=0;entryDx=0;entryDy=0;jumpStyle=arc;" parent="MrJL4Cl_HdAFYrtcQk6u-12" target="ec_nTFersLw2R51HPFCD-16" edge="1">
          <mxGeometry width="50" height="50" relative="1" as="geometry">
            <mxPoint x="210" y="480" as="sourcePoint" />
            <mxPoint x="320" y="-10" as="targetPoint" />
            <Array as="points">
              <mxPoint x="600" y="480" />
              <mxPoint x="600" y="412" />
            </Array>
          </mxGeometry>
        </mxCell>
        <mxCell id="lq49TgYs11oCLogU7XhR-9" value="" style="endArrow=classic;html=1;strokeColor=#B85450;strokeWidth=2;exitX=1;exitY=0.5;exitDx=0;exitDy=0;entryX=0;entryY=0.5;entryDx=0;entryDy=0;jumpStyle=arc;" parent="MrJL4Cl_HdAFYrtcQk6u-12" source="9i3J6mn8uBdhyOnGni23-12" target="gC-9RXFtl5AX3G4jlq2e-22" edge="1">
          <mxGeometry width="50" height="50" relative="1" as="geometry">
            <mxPoint x="270" y="-20" as="sourcePoint" />
            <mxPoint x="320" y="-70" as="targetPoint" />
            <Array as="points">
              <mxPoint x="560" y="480" />
              <mxPoint x="560" y="845" />
            </Array>
          </mxGeometry>
        </mxCell>
        <mxCell id="lq49TgYs11oCLogU7XhR-10" value="" style="endArrow=classic;html=1;strokeColor=#B85450;strokeWidth=2;exitX=0;exitY=0.5;exitDx=0;exitDy=0;entryX=1;entryY=0.5;entryDx=0;entryDy=0;jumpStyle=arc;" parent="MrJL4Cl_HdAFYrtcQk6u-12" source="9i3J6mn8uBdhyOnGni23-56" target="gC-9RXFtl5AX3G4jlq2e-15" edge="1">
          <mxGeometry width="50" height="50" relative="1" as="geometry">
            <mxPoint x="1370" y="-150" as="sourcePoint" />
            <mxPoint x="1420" y="-200" as="targetPoint" />
            <Array as="points">
              <mxPoint x="1560" y="5" />
              <mxPoint x="1560" y="-210" />
              <mxPoint x="1070" y="-210" />
              <mxPoint x="1070" y="-155" />
            </Array>
          </mxGeometry>
        </mxCell>
        <mxCell id="lq49TgYs11oCLogU7XhR-11" value="" style="endArrow=classic;html=1;strokeColor=#B85450;strokeWidth=2;exitX=0;exitY=0.5;exitDx=0;exitDy=0;entryX=1;entryY=1;entryDx=0;entryDy=0;jumpStyle=arc;" parent="MrJL4Cl_HdAFYrtcQk6u-12" source="9i3J6mn8uBdhyOnGni23-23" target="gC-9RXFtl5AX3G4jlq2e-28" edge="1">
          <mxGeometry width="50" height="50" relative="1" as="geometry">
            <mxPoint x="1430" y="50" as="sourcePoint" />
            <mxPoint x="1480" as="targetPoint" />
            <Array as="points">
              <mxPoint x="1550" y="90" />
              <mxPoint x="1550" y="-60" />
            </Array>
          </mxGeometry>
        </mxCell>
        <mxCell id="lq49TgYs11oCLogU7XhR-12" value="" style="endArrow=classic;html=1;strokeColor=#B85450;strokeWidth=2;entryX=1;entryY=0;entryDx=0;entryDy=0;jumpStyle=arc;" parent="MrJL4Cl_HdAFYrtcQk6u-12" target="gC-9RXFtl5AX3G4jlq2e-31" edge="1">
          <mxGeometry width="50" height="50" relative="1" as="geometry">
            <mxPoint x="1614" y="90" as="sourcePoint" />
            <mxPoint x="1301" y="90" as="targetPoint" />
            <Array as="points">
              <mxPoint x="1550" y="90" />
              <mxPoint x="1550" y="-30" />
            </Array>
          </mxGeometry>
        </mxCell>
        <mxCell id="lq49TgYs11oCLogU7XhR-13" value="" style="endArrow=classic;html=1;strokeColor=#B85450;strokeWidth=2;entryX=1;entryY=0;entryDx=0;entryDy=0;jumpStyle=arc;" parent="MrJL4Cl_HdAFYrtcQk6u-12" target="gC-9RXFtl5AX3G4jlq2e-24" edge="1">
          <mxGeometry width="50" height="50" relative="1" as="geometry">
            <mxPoint x="1610" y="90" as="sourcePoint" />
            <mxPoint x="1410" y="460" as="targetPoint" />
            <Array as="points">
              <mxPoint x="1350" y="90" />
              <mxPoint x="1350" y="650" />
            </Array>
          </mxGeometry>
        </mxCell>
        <mxCell id="lq49TgYs11oCLogU7XhR-14" value="" style="endArrow=classic;html=1;strokeColor=#B85450;strokeWidth=2;exitX=0;exitY=0;exitDx=0;exitDy=0;entryX=1;entryY=0;entryDx=0;entryDy=0;jumpStyle=arc;" parent="MrJL4Cl_HdAFYrtcQk6u-12" source="9i3J6mn8uBdhyOnGni23-39" target="gC-9RXFtl5AX3G4jlq2e-19" edge="1">
          <mxGeometry width="50" height="50" relative="1" as="geometry">
            <mxPoint x="1400" y="240" as="sourcePoint" />
            <mxPoint x="1450" y="190" as="targetPoint" />
            <Array as="points">
              <mxPoint x="1550" y="220" />
              <mxPoint x="1550" y="137" />
              <mxPoint x="1320" y="137" />
              <mxPoint x="1320" y="92" />
            </Array>
          </mxGeometry>
        </mxCell>
        <mxCell id="lq49TgYs11oCLogU7XhR-16" value="" style="endArrow=classic;html=1;strokeColor=#B85450;strokeWidth=2;exitX=0;exitY=0;exitDx=0;exitDy=0;entryX=1;entryY=1;entryDx=0;entryDy=0;jumpStyle=arc;" parent="MrJL4Cl_HdAFYrtcQk6u-12" source="9i3J6mn8uBdhyOnGni23-46" target="ec_nTFersLw2R51HPFCD-15" edge="1">
          <mxGeometry width="50" height="50" relative="1" as="geometry">
            <mxPoint x="1360" y="300" as="sourcePoint" />
            <mxPoint x="1410" y="250" as="targetPoint" />
            <Array as="points">
              <mxPoint x="1550" y="420" />
              <mxPoint x="1550" y="330" />
            </Array>
          </mxGeometry>
        </mxCell>
        <mxCell id="lq49TgYs11oCLogU7XhR-17" value="" style="endArrow=classic;html=1;strokeColor=#B85450;strokeWidth=2;exitX=0;exitY=1;exitDx=0;exitDy=0;entryX=0;entryY=0.5;entryDx=0;entryDy=0;jumpStyle=arc;" parent="MrJL4Cl_HdAFYrtcQk6u-12" source="9i3J6mn8uBdhyOnGni23-45" target="gC-9RXFtl5AX3G4jlq2e-21" edge="1">
          <mxGeometry width="50" height="50" relative="1" as="geometry">
            <mxPoint x="1380" y="460" as="sourcePoint" />
            <mxPoint x="1430" y="410" as="targetPoint" />
            <Array as="points">
              <mxPoint x="1330" y="420" />
              <mxPoint x="1330" y="640" />
              <mxPoint x="880" y="640" />
              <mxPoint x="880" y="710" />
            </Array>
          </mxGeometry>
        </mxCell>
        <mxCell id="lq49TgYs11oCLogU7XhR-18" value="" style="endArrow=classic;html=1;strokeColor=#B85450;strokeWidth=2;exitX=0;exitY=0.5;exitDx=0;exitDy=0;entryX=1;entryY=1;entryDx=0;entryDy=0;jumpStyle=arc;" parent="MrJL4Cl_HdAFYrtcQk6u-12" source="9i3J6mn8uBdhyOnGni23-54" target="MrJL4Cl_HdAFYrtcQk6u-53" edge="1">
          <mxGeometry width="50" height="50" relative="1" as="geometry">
            <mxPoint x="1370" y="800" as="sourcePoint" />
            <mxPoint x="1420" y="750" as="targetPoint" />
            <Array as="points">
              <mxPoint x="1370" y="510" />
              <mxPoint x="1370" y="1078" />
            </Array>
          </mxGeometry>
        </mxCell>
        <mxCell id="lq49TgYs11oCLogU7XhR-19" value="" style="endArrow=classic;html=1;strokeColor=#B85450;strokeWidth=2;entryX=1;entryY=0;entryDx=0;entryDy=0;exitX=0;exitY=0.5;exitDx=0;exitDy=0;jumpStyle=arc;" parent="MrJL4Cl_HdAFYrtcQk6u-12" source="9i3J6mn8uBdhyOnGni23-64" target="gC-9RXFtl5AX3G4jlq2e-28" edge="1">
          <mxGeometry width="50" height="50" relative="1" as="geometry">
            <mxPoint x="1420" y="600" as="sourcePoint" />
            <mxPoint x="1470" y="550" as="targetPoint" />
            <Array as="points">
              <mxPoint x="1470" y="585" />
              <mxPoint x="1470" y="-200" />
            </Array>
          </mxGeometry>
        </mxCell>
        <mxCell id="lq49TgYs11oCLogU7XhR-20" value="" style="endArrow=classic;html=1;strokeColor=#B85450;strokeWidth=2;exitX=0;exitY=0.5;exitDx=0;exitDy=0;entryX=1;entryY=1;entryDx=0;entryDy=0;jumpStyle=arc;" parent="MrJL4Cl_HdAFYrtcQk6u-12" source="9i3J6mn8uBdhyOnGni23-64" target="gC-9RXFtl5AX3G4jlq2e-31" edge="1">
          <mxGeometry width="50" height="50" relative="1" as="geometry">
            <mxPoint x="1410" y="680" as="sourcePoint" />
            <mxPoint x="1460" y="630" as="targetPoint" />
            <Array as="points">
              <mxPoint x="1470" y="585" />
              <mxPoint x="1470" y="620" />
            </Array>
          </mxGeometry>
        </mxCell>
        <mxCell id="lq49TgYs11oCLogU7XhR-21" value="" style="endArrow=classic;html=1;strokeColor=#B85450;strokeWidth=2;entryX=1;entryY=0;entryDx=0;entryDy=0;exitX=0;exitY=0.5;exitDx=0;exitDy=0;jumpStyle=arc;" parent="MrJL4Cl_HdAFYrtcQk6u-12" source="9i3J6mn8uBdhyOnGni23-64" target="gC-9RXFtl5AX3G4jlq2e-24" edge="1">
          <mxGeometry width="50" height="50" relative="1" as="geometry">
            <mxPoint x="1410" y="750" as="sourcePoint" />
            <mxPoint x="1460" y="700" as="targetPoint" />
            <Array as="points">
              <mxPoint x="1470" y="585" />
              <mxPoint x="1470" y="650" />
            </Array>
          </mxGeometry>
        </mxCell>
        <mxCell id="lq49TgYs11oCLogU7XhR-22" value="" style="endArrow=classic;html=1;strokeColor=#B85450;strokeWidth=2;exitX=0;exitY=0.5;exitDx=0;exitDy=0;entryX=1;entryY=0.5;entryDx=0;entryDy=0;jumpStyle=arc;" parent="MrJL4Cl_HdAFYrtcQk6u-12" source="9i3J6mn8uBdhyOnGni23-64" target="MrJL4Cl_HdAFYrtcQk6u-35" edge="1">
          <mxGeometry width="50" height="50" relative="1" as="geometry">
            <mxPoint x="1440" y="910" as="sourcePoint" />
            <mxPoint x="1490" y="860" as="targetPoint" />
            <Array as="points">
              <mxPoint x="1470" y="585" />
              <mxPoint x="1470" y="960" />
            </Array>
          </mxGeometry>
        </mxCell>
        <mxCell id="lq49TgYs11oCLogU7XhR-23" value="" style="endArrow=classic;html=1;strokeColor=#B85450;strokeWidth=2;entryX=1;entryY=0;entryDx=0;entryDy=0;exitX=0;exitY=0.5;exitDx=0;exitDy=0;jumpStyle=arc;" parent="MrJL4Cl_HdAFYrtcQk6u-12" source="9i3J6mn8uBdhyOnGni23-64" target="gC-9RXFtl5AX3G4jlq2e-22" edge="1">
          <mxGeometry width="50" height="50" relative="1" as="geometry">
            <mxPoint x="1390" y="790" as="sourcePoint" />
            <mxPoint x="1440" y="740" as="targetPoint" />
            <Array as="points">
              <mxPoint x="1470" y="585" />
              <mxPoint x="1470" y="799" />
            </Array>
          </mxGeometry>
        </mxCell>
        <mxCell id="sOPwJVsoFeWnDo0bkp-N-1" value="" style="endArrow=classic;html=1;entryX=0;entryY=0.5;entryDx=0;entryDy=0;exitX=1;exitY=0.5;exitDx=0;exitDy=0;strokeColor=#B85450;jumpStyle=arc;strokeWidth=2;" parent="MrJL4Cl_HdAFYrtcQk6u-12" source="MrJL4Cl_HdAFYrtcQk6u-40" target="gC-9RXFtl5AX3G4jlq2e-22" edge="1">
          <mxGeometry width="50" height="50" relative="1" as="geometry">
            <mxPoint x="310" y="920" as="sourcePoint" />
            <mxPoint x="360" y="870" as="targetPoint" />
            <Array as="points">
              <mxPoint x="600" y="615" />
              <mxPoint x="600" y="845" />
            </Array>
          </mxGeometry>
        </mxCell>
        <mxCell id="sOPwJVsoFeWnDo0bkp-N-2" value="" style="endArrow=classic;html=1;strokeColor=#B85450;strokeWidth=2;exitX=1;exitY=0.5;exitDx=0;exitDy=0;entryX=0;entryY=1;entryDx=0;entryDy=0;jumpStyle=arc;" parent="MrJL4Cl_HdAFYrtcQk6u-12" source="MrJL4Cl_HdAFYrtcQk6u-41" target="gC-9RXFtl5AX3G4jlq2e-28" edge="1">
          <mxGeometry width="50" height="50" relative="1" as="geometry">
            <mxPoint x="370" y="860" as="sourcePoint" />
            <mxPoint x="420" y="810" as="targetPoint" />
            <Array as="points">
              <mxPoint x="620" y="530" />
              <mxPoint x="620" y="-60" />
            </Array>
          </mxGeometry>
        </mxCell>
        <mxCell id="sOPwJVsoFeWnDo0bkp-N-3" value="" style="endArrow=classic;html=1;strokeColor=#B85450;strokeWidth=2;exitX=1;exitY=0.5;exitDx=0;exitDy=0;entryX=0;entryY=1;entryDx=0;entryDy=0;jumpStyle=arc;" parent="MrJL4Cl_HdAFYrtcQk6u-12" source="MrJL4Cl_HdAFYrtcQk6u-41" target="gC-9RXFtl5AX3G4jlq2e-31" edge="1">
          <mxGeometry width="50" height="50" relative="1" as="geometry">
            <mxPoint x="310" y="870" as="sourcePoint" />
            <mxPoint x="360" y="820" as="targetPoint" />
            <Array as="points">
              <mxPoint x="620" y="530" />
              <mxPoint x="620" y="620" />
            </Array>
          </mxGeometry>
        </mxCell>
        <mxCell id="sOPwJVsoFeWnDo0bkp-N-4" value="" style="endArrow=classic;html=1;strokeColor=#B85450;strokeWidth=2;exitX=1;exitY=0.5;exitDx=0;exitDy=0;entryX=0;entryY=0.25;entryDx=0;entryDy=0;jumpStyle=arc;" parent="MrJL4Cl_HdAFYrtcQk6u-12" source="MrJL4Cl_HdAFYrtcQk6u-41" target="gC-9RXFtl5AX3G4jlq2e-24" edge="1">
          <mxGeometry width="50" height="50" relative="1" as="geometry">
            <mxPoint x="290" y="940" as="sourcePoint" />
            <mxPoint x="340" y="890" as="targetPoint" />
            <Array as="points">
              <mxPoint x="620" y="530" />
              <mxPoint x="620" y="750" />
            </Array>
          </mxGeometry>
        </mxCell>
        <mxCell id="sOPwJVsoFeWnDo0bkp-N-5" value="" style="endArrow=classic;html=1;strokeColor=#B85450;strokeWidth=2;exitX=1;exitY=0.5;exitDx=0;exitDy=0;entryX=0;entryY=0;entryDx=0;entryDy=0;jumpStyle=arc;" parent="MrJL4Cl_HdAFYrtcQk6u-12" source="MrJL4Cl_HdAFYrtcQk6u-41" target="MrJL4Cl_HdAFYrtcQk6u-35" edge="1">
          <mxGeometry width="50" height="50" relative="1" as="geometry">
            <mxPoint x="330" y="1030" as="sourcePoint" />
            <mxPoint x="380" y="980" as="targetPoint" />
            <Array as="points">
              <mxPoint x="620" y="530" />
              <mxPoint x="620" y="925" />
            </Array>
          </mxGeometry>
        </mxCell>
        <mxCell id="MrJL4Cl_HdAFYrtcQk6u-24" value="Kubernetes - Workloads" style="" parent="0" />
        <mxCell id="MrJL4Cl_HdAFYrtcQk6u-34" value="tZ-pod" style="html=1;fontColor=#FF3333;fontStyle=1;align=left;verticalAlign=top;spacing=0;labelBorderColor=none;fillColor=none;dashed=1;strokeWidth=5;strokeColor=#FF3333;spacingLeft=4;spacingTop=-3;" parent="MrJL4Cl_HdAFYrtcQk6u-24" vertex="1">
          <mxGeometry x="1120" y="890" width="163" height="140" as="geometry" />
        </mxCell>
        <mxCell id="MrJL4Cl_HdAFYrtcQk6u-35" value="Application" style="ellipse;whiteSpace=wrap;html=1;aspect=fixed;fillColor=#dae8fc;strokeColor=#6c8ebf;" parent="MrJL4Cl_HdAFYrtcQk6u-24" vertex="1">
          <mxGeometry x="1150" y="910" width="100" height="100" as="geometry" />
        </mxCell>
        <mxCell id="MrJL4Cl_HdAFYrtcQk6u-39" value="External Components" style="" parent="0" />
        <mxCell id="MrJL4Cl_HdAFYrtcQk6u-40" value="Public Registry" style="rounded=0;whiteSpace=wrap;html=1;" parent="MrJL4Cl_HdAFYrtcQk6u-39" vertex="1">
          <mxGeometry x="280" y="585" width="100" height="60" as="geometry" />
        </mxCell>
        <mxCell id="MrJL4Cl_HdAFYrtcQk6u-41" value="Public 3rd Party Repository" style="rounded=0;whiteSpace=wrap;html=1;" parent="MrJL4Cl_HdAFYrtcQk6u-39" vertex="1">
          <mxGeometry x="280" y="500" width="100" height="60" as="geometry" />
        </mxCell>
        <mxCell id="9i3J6mn8uBdhyOnGni23-64" value="Artifact Repository Manager" style="rounded=0;whiteSpace=wrap;html=1;" parent="MrJL4Cl_HdAFYrtcQk6u-39" vertex="1">
          <mxGeometry x="1500" y="560" width="100" height="50" as="geometry" />
        </mxCell>
        <mxCell id="MrJL4Cl_HdAFYrtcQk6u-52" value="Kubernetes - Services" style="" parent="0" />
        <mxCell id="MrJL4Cl_HdAFYrtcQk6u-53" value="Kubernetes Service: NodePort" style="ellipse;whiteSpace=wrap;html=1;aspect=fixed;fillColor=#dae8fc;strokeColor=#6c8ebf;" parent="MrJL4Cl_HdAFYrtcQk6u-52" vertex="1">
          <mxGeometry x="950" y="1010" width="80" height="80" as="geometry" />
        </mxCell>
        <mxCell id="ec_nTFersLw2R51HPFCD-9" value="AuthN/AuthZ Zones" style="" parent="0" />
        <mxCell id="ec_nTFersLw2R51HPFCD-79" value="Controls" style="" parent="0" />
        <mxCell id="ec_nTFersLw2R51HPFCD-80" value="&lt;table border=&quot;1&quot; width=&quot;100%&quot; style=&quot;width: 100% ; height: 100% ; border-collapse: collapse ; border: 1px solid #82b366&quot;&gt;&lt;tbody&gt;&lt;tr style=&quot;background-color: #d5e8d4 ; color: #000000 ; border: 1px solid #82b366&quot;&gt;&lt;th align=&quot;center&quot; colspan=&quot;2&quot;&gt;Controls&lt;/th&gt;&lt;/tr&gt;&lt;tr style=&quot;background-color: #d5e8d4 ; color: #000000 ; border: 1px solid #82b366&quot;&gt;&lt;th align=&quot;left&quot; style=&quot;border: 1px solid #82b366&quot;&gt;ID&lt;/th&gt;&lt;th align=&quot;left&quot; style=&quot;border: 1px solid #82b366&quot;&gt;Description&lt;/th&gt;&lt;/tr&gt;&lt;tr&gt;&lt;td style=&quot;border: 1px solid #82b366&quot;&gt;C01&lt;/td&gt;&lt;td style=&quot;border: 1px solid #82b366&quot;&gt;C-Harden-Component&lt;/td&gt;&lt;/tr&gt;&lt;tr&gt;&lt;td&gt;C02&lt;/td&gt;&lt;td&gt;C-Control-Traffic-Flow&lt;/td&gt;&lt;/tr&gt;&lt;tr&gt;&lt;td&gt;C03&lt;/td&gt;&lt;td&gt;C-Harden-Config-Compl-Mon / C-Mon-Drift&lt;/td&gt;&lt;/tr&gt;&lt;tr&gt;&lt;td&gt;C04&lt;/td&gt;&lt;td&gt;C-Evt-Log-App / C-Evt-Log-Sec / C-Evt-Log-Sys&lt;/td&gt;&lt;/tr&gt;&lt;tr&gt;&lt;td&gt;C05&lt;/td&gt;&lt;td&gt;C-Mon-File-Integrity&lt;/td&gt;&lt;/tr&gt;&lt;tr&gt;&lt;td&gt;C06&lt;/td&gt;&lt;td&gt;C-Mon-Log&lt;/td&gt;&lt;/tr&gt;&lt;tr&gt;&lt;td&gt;C07&lt;/td&gt;&lt;td&gt;C-Mon-Health&lt;br&gt;&lt;/td&gt;&lt;/tr&gt;&lt;tr&gt;&lt;td&gt;C08&lt;/td&gt;&lt;td&gt;C-Vuln-Scan&lt;/td&gt;&lt;/tr&gt;&lt;tr&gt;&lt;td&gt;C09&lt;/td&gt;&lt;td&gt;C-K8s-Harden-Component&lt;/td&gt;&lt;/tr&gt;&lt;tr&gt;&lt;td&gt;C10&lt;/td&gt;&lt;td&gt;C-K8s-AdmissionControllers&lt;/td&gt;&lt;/tr&gt;&lt;tr&gt;&lt;td&gt;C11&lt;/td&gt;&lt;td&gt;C-K8s-AuditLogs&lt;/td&gt;&lt;/tr&gt;&lt;tr&gt;&lt;td&gt;C12&lt;/td&gt;&lt;td&gt;C-K8s-Authorisation&lt;/td&gt;&lt;/tr&gt;&lt;tr&gt;&lt;td&gt;C13&lt;/td&gt;&lt;td&gt;C-K8s-CNI-NetworkPolicies&lt;/td&gt;&lt;/tr&gt;&lt;tr&gt;&lt;td&gt;C14&lt;/td&gt;&lt;td&gt;C-K8s-MutatingAdmissionController&lt;/td&gt;&lt;/tr&gt;&lt;tr&gt;&lt;td&gt;C15&lt;/td&gt;&lt;td&gt;C-K8s-ValidationAdmissionController&lt;/td&gt;&lt;/tr&gt;&lt;tr&gt;&lt;td&gt;C16&lt;/td&gt;&lt;td&gt;C-K8s-Encryption&lt;/td&gt;&lt;/tr&gt;&lt;tr&gt;&lt;td&gt;C17&lt;/td&gt;&lt;td&gt;C-K8s-ContainerRuntimeSecurity&lt;/td&gt;&lt;/tr&gt;&lt;tr&gt;&lt;td&gt;C18&lt;/td&gt;&lt;td&gt;C-K8s-Authentication&lt;/td&gt;&lt;/tr&gt;&lt;/tbody&gt;&lt;/table&gt;" style="text;html=1;strokeColor=#c0c0c0;fillColor=#ffffff;overflow=fill;rounded=0;shadow=1;labelBackgroundColor=#ffffff;fontColor=#000000;align=left;" parent="ec_nTFersLw2R51HPFCD-79" vertex="1">
          <mxGeometry x="-480" y="800" width="440" height="460" as="geometry" />
        </mxCell>
        <mxCell id="SMCOjGt2_8Jc8y6AjaTe-1" value="C01" style="text;html=1;strokeColor=#82b366;fillColor=#d5e8d4;align=center;verticalAlign=middle;whiteSpace=wrap;overflow=hidden;" parent="ec_nTFersLw2R51HPFCD-79" vertex="1">
          <mxGeometry x="1120" y="-120" width="40" height="20" as="geometry" />
        </mxCell>
        <mxCell id="SMCOjGt2_8Jc8y6AjaTe-2" value="C01" style="text;html=1;strokeColor=#82b366;fillColor=#d5e8d4;align=center;verticalAlign=middle;whiteSpace=wrap;overflow=hidden;" parent="ec_nTFersLw2R51HPFCD-79" vertex="1">
          <mxGeometry x="730" y="160" width="40" height="20" as="geometry" />
        </mxCell>
        <mxCell id="SMCOjGt2_8Jc8y6AjaTe-3" value="C01" style="text;html=1;strokeColor=#82b366;fillColor=#d5e8d4;align=center;verticalAlign=middle;whiteSpace=wrap;overflow=hidden;" parent="ec_nTFersLw2R51HPFCD-79" vertex="1">
          <mxGeometry x="730" y="780" width="40" height="20" as="geometry" />
        </mxCell>
        <mxCell id="SMCOjGt2_8Jc8y6AjaTe-5" value="C02" style="text;html=1;strokeColor=#82b366;fillColor=#d5e8d4;align=center;verticalAlign=middle;whiteSpace=wrap;overflow=hidden;" parent="ec_nTFersLw2R51HPFCD-79" vertex="1">
          <mxGeometry x="520" y="-200" width="40" height="20" as="geometry" />
        </mxCell>
        <mxCell id="SMCOjGt2_8Jc8y6AjaTe-6" value="C03" style="text;html=1;strokeColor=#82b366;fillColor=#d5e8d4;align=center;verticalAlign=middle;whiteSpace=wrap;overflow=hidden;" parent="ec_nTFersLw2R51HPFCD-79" vertex="1">
          <mxGeometry x="1201" y="-180" width="40" height="20" as="geometry" />
        </mxCell>
        <mxCell id="SMCOjGt2_8Jc8y6AjaTe-7" value="C03" style="text;html=1;strokeColor=#82b366;fillColor=#d5e8d4;align=center;verticalAlign=middle;whiteSpace=wrap;overflow=hidden;" parent="ec_nTFersLw2R51HPFCD-79" vertex="1">
          <mxGeometry x="730" y="180" width="40" height="20" as="geometry" />
        </mxCell>
        <mxCell id="SMCOjGt2_8Jc8y6AjaTe-8" value="C03" style="text;html=1;strokeColor=#82b366;fillColor=#d5e8d4;align=center;verticalAlign=middle;whiteSpace=wrap;overflow=hidden;" parent="ec_nTFersLw2R51HPFCD-79" vertex="1">
          <mxGeometry x="770" y="680" width="40" height="20" as="geometry" />
        </mxCell>
        <mxCell id="SMCOjGt2_8Jc8y6AjaTe-9" value="C04" style="text;html=1;strokeColor=#82b366;fillColor=#d5e8d4;align=center;verticalAlign=middle;whiteSpace=wrap;overflow=hidden;" parent="ec_nTFersLw2R51HPFCD-79" vertex="1">
          <mxGeometry x="1201" y="-160" width="40" height="20" as="geometry" />
        </mxCell>
        <mxCell id="SMCOjGt2_8Jc8y6AjaTe-10" value="C04" style="text;html=1;strokeColor=#82b366;fillColor=#d5e8d4;align=center;verticalAlign=middle;whiteSpace=wrap;overflow=hidden;" parent="ec_nTFersLw2R51HPFCD-79" vertex="1">
          <mxGeometry x="730" y="200" width="40" height="20" as="geometry" />
        </mxCell>
        <mxCell id="SMCOjGt2_8Jc8y6AjaTe-11" value="C04" style="text;html=1;strokeColor=#82b366;fillColor=#d5e8d4;align=center;verticalAlign=middle;whiteSpace=wrap;overflow=hidden;" parent="ec_nTFersLw2R51HPFCD-79" vertex="1">
          <mxGeometry x="770" y="700" width="40" height="20" as="geometry" />
        </mxCell>
        <mxCell id="SMCOjGt2_8Jc8y6AjaTe-12" value="C05" style="text;html=1;strokeColor=#82b366;fillColor=#d5e8d4;align=center;verticalAlign=middle;whiteSpace=wrap;overflow=hidden;" parent="ec_nTFersLw2R51HPFCD-79" vertex="1">
          <mxGeometry x="1160" y="-180" width="40" height="20" as="geometry" />
        </mxCell>
        <mxCell id="SMCOjGt2_8Jc8y6AjaTe-13" value="C05" style="text;html=1;strokeColor=#82b366;fillColor=#d5e8d4;align=center;verticalAlign=middle;whiteSpace=wrap;overflow=hidden;" parent="ec_nTFersLw2R51HPFCD-79" vertex="1">
          <mxGeometry x="730" y="220" width="40" height="20" as="geometry" />
        </mxCell>
        <mxCell id="SMCOjGt2_8Jc8y6AjaTe-14" value="C05" style="text;html=1;strokeColor=#82b366;fillColor=#d5e8d4;align=center;verticalAlign=middle;whiteSpace=wrap;overflow=hidden;" parent="ec_nTFersLw2R51HPFCD-79" vertex="1">
          <mxGeometry x="770" y="720" width="40" height="20" as="geometry" />
        </mxCell>
        <mxCell id="SMCOjGt2_8Jc8y6AjaTe-15" value="C06" style="text;html=1;strokeColor=#82b366;fillColor=#d5e8d4;align=center;verticalAlign=middle;whiteSpace=wrap;overflow=hidden;" parent="ec_nTFersLw2R51HPFCD-79" vertex="1">
          <mxGeometry x="1160" y="-160" width="40" height="20" as="geometry" />
        </mxCell>
        <mxCell id="SMCOjGt2_8Jc8y6AjaTe-16" value="C06" style="text;html=1;strokeColor=#82b366;fillColor=#d5e8d4;align=center;verticalAlign=middle;whiteSpace=wrap;overflow=hidden;" parent="ec_nTFersLw2R51HPFCD-79" vertex="1">
          <mxGeometry x="730" y="240" width="40" height="20" as="geometry" />
        </mxCell>
        <mxCell id="SMCOjGt2_8Jc8y6AjaTe-17" value="C06" style="text;html=1;strokeColor=#82b366;fillColor=#d5e8d4;align=center;verticalAlign=middle;whiteSpace=wrap;overflow=hidden;" parent="ec_nTFersLw2R51HPFCD-79" vertex="1">
          <mxGeometry x="770" y="740" width="40" height="20" as="geometry" />
        </mxCell>
        <mxCell id="SMCOjGt2_8Jc8y6AjaTe-18" value="C07" style="text;html=1;strokeColor=#82b366;fillColor=#d5e8d4;align=center;verticalAlign=middle;whiteSpace=wrap;overflow=hidden;" parent="ec_nTFersLw2R51HPFCD-79" vertex="1">
          <mxGeometry x="1160" y="-140" width="40" height="20" as="geometry" />
        </mxCell>
        <mxCell id="SMCOjGt2_8Jc8y6AjaTe-19" value="C08" style="text;html=1;strokeColor=#82b366;fillColor=#d5e8d4;align=center;verticalAlign=middle;whiteSpace=wrap;overflow=hidden;" parent="ec_nTFersLw2R51HPFCD-79" vertex="1">
          <mxGeometry x="1160" y="-120" width="40" height="20" as="geometry" />
        </mxCell>
        <mxCell id="SMCOjGt2_8Jc8y6AjaTe-20" value="C07" style="text;html=1;strokeColor=#82b366;fillColor=#d5e8d4;align=center;verticalAlign=middle;whiteSpace=wrap;overflow=hidden;" parent="ec_nTFersLw2R51HPFCD-79" vertex="1">
          <mxGeometry x="730" y="260" width="40" height="20" as="geometry" />
        </mxCell>
        <mxCell id="SMCOjGt2_8Jc8y6AjaTe-21" value="C08" style="text;html=1;strokeColor=#82b366;fillColor=#d5e8d4;align=center;verticalAlign=middle;whiteSpace=wrap;overflow=hidden;" parent="ec_nTFersLw2R51HPFCD-79" vertex="1">
          <mxGeometry x="770" width="40" height="20" as="geometry" />
        </mxCell>
        <mxCell id="SMCOjGt2_8Jc8y6AjaTe-22" value="C07" style="text;html=1;strokeColor=#82b366;fillColor=#d5e8d4;align=center;verticalAlign=middle;whiteSpace=wrap;overflow=hidden;" parent="ec_nTFersLw2R51HPFCD-79" vertex="1">
          <mxGeometry x="770" y="760" width="40" height="20" as="geometry" />
        </mxCell>
        <mxCell id="SMCOjGt2_8Jc8y6AjaTe-23" value="C08" style="text;html=1;strokeColor=#82b366;fillColor=#d5e8d4;align=center;verticalAlign=middle;whiteSpace=wrap;overflow=hidden;" parent="ec_nTFersLw2R51HPFCD-79" vertex="1">
          <mxGeometry x="770" y="780" width="40" height="20" as="geometry" />
        </mxCell>
        <mxCell id="SMCOjGt2_8Jc8y6AjaTe-24" value="C09" style="text;html=1;strokeColor=#82b366;fillColor=#d5e8d4;align=center;verticalAlign=middle;whiteSpace=wrap;overflow=hidden;" parent="ec_nTFersLw2R51HPFCD-79" vertex="1">
          <mxGeometry x="770" y="20" width="40" height="20" as="geometry" />
        </mxCell>
        <mxCell id="SMCOjGt2_8Jc8y6AjaTe-25" value="C10" style="text;html=1;strokeColor=#82b366;fillColor=#d5e8d4;align=center;verticalAlign=middle;whiteSpace=wrap;overflow=hidden;" parent="ec_nTFersLw2R51HPFCD-79" vertex="1">
          <mxGeometry x="770" y="40" width="40" height="20" as="geometry" />
        </mxCell>
        <mxCell id="SMCOjGt2_8Jc8y6AjaTe-26" value="C11" style="text;html=1;strokeColor=#82b366;fillColor=#d5e8d4;align=center;verticalAlign=middle;whiteSpace=wrap;overflow=hidden;" parent="ec_nTFersLw2R51HPFCD-79" vertex="1">
          <mxGeometry x="770" y="60" width="40" height="20" as="geometry" />
        </mxCell>
        <mxCell id="SMCOjGt2_8Jc8y6AjaTe-27" value="C12" style="text;html=1;strokeColor=#82b366;fillColor=#d5e8d4;align=center;verticalAlign=middle;whiteSpace=wrap;overflow=hidden;" parent="ec_nTFersLw2R51HPFCD-79" vertex="1">
          <mxGeometry x="770" y="80" width="40" height="20" as="geometry" />
        </mxCell>
        <mxCell id="SMCOjGt2_8Jc8y6AjaTe-28" value="C13" style="text;html=1;strokeColor=#82b366;fillColor=#d5e8d4;align=center;verticalAlign=middle;whiteSpace=wrap;overflow=hidden;" parent="ec_nTFersLw2R51HPFCD-79" vertex="1">
          <mxGeometry x="770" y="100" width="40" height="20" as="geometry" />
        </mxCell>
        <mxCell id="SMCOjGt2_8Jc8y6AjaTe-29" value="C14" style="text;html=1;strokeColor=#82b366;fillColor=#d5e8d4;align=center;verticalAlign=middle;whiteSpace=wrap;overflow=hidden;" parent="ec_nTFersLw2R51HPFCD-79" vertex="1">
          <mxGeometry x="770" y="120" width="40" height="20" as="geometry" />
        </mxCell>
        <mxCell id="SMCOjGt2_8Jc8y6AjaTe-30" value="C15" style="text;html=1;strokeColor=#82b366;fillColor=#d5e8d4;align=center;verticalAlign=middle;whiteSpace=wrap;overflow=hidden;" parent="ec_nTFersLw2R51HPFCD-79" vertex="1">
          <mxGeometry x="770" y="140" width="40" height="20" as="geometry" />
        </mxCell>
        <mxCell id="SMCOjGt2_8Jc8y6AjaTe-31" value="C16" style="text;html=1;strokeColor=#82b366;fillColor=#d5e8d4;align=center;verticalAlign=middle;whiteSpace=wrap;overflow=hidden;" parent="ec_nTFersLw2R51HPFCD-79" vertex="1">
          <mxGeometry x="770" y="160" width="40" height="20" as="geometry" />
        </mxCell>
        <mxCell id="SMCOjGt2_8Jc8y6AjaTe-32" value="C17" style="text;html=1;strokeColor=#82b366;fillColor=#d5e8d4;align=center;verticalAlign=middle;whiteSpace=wrap;overflow=hidden;" parent="ec_nTFersLw2R51HPFCD-79" vertex="1">
          <mxGeometry x="770" y="180" width="40" height="20" as="geometry" />
        </mxCell>
        <mxCell id="SMCOjGt2_8Jc8y6AjaTe-33" value="C18" style="text;html=1;strokeColor=#82b366;fillColor=#d5e8d4;align=center;verticalAlign=middle;whiteSpace=wrap;overflow=hidden;" parent="ec_nTFersLw2R51HPFCD-79" vertex="1">
          <mxGeometry x="770" y="200" width="40" height="20" as="geometry" />
        </mxCell>
      </root>
    </mxGraphModel>
  </diagram>
</mxfile>
